<svg width="343" height="285" viewBox="0 0 343 285" fill="none" xmlns="http://www.w3.org/2000/svg">
<path d="M104.72 23.144V33.82H114.852V37.9H104.72V48.78H100.3V37.9H90.372V33.82H100.3V23.144H104.72Z" fill="white"/>
<g filter="url(#filter0_b_301_2143)">
<path d="M121 37.5C121 24.5213 131.521 14 144.5 14H270.5C283.479 14 294 24.5213 294 37.5C294 50.4787 283.479 61 270.5 61H144.5C131.521 61 121 50.4787 121 37.5Z" fill="white" fill-opacity="0.5"/>
<path d="M142.476 43V30.274H151.206V32.146H144.564V36.178H150.252V38.032H144.564V43H142.476ZM156.7 33.352C157.456 33.352 158.122 33.472 158.698 33.712C159.274 33.952 159.76 34.288 160.156 34.72C160.564 35.14 160.87 35.65 161.074 36.25C161.278 36.85 161.38 37.516 161.38 38.248C161.38 38.992 161.278 39.664 161.074 40.264C160.882 40.852 160.588 41.362 160.192 41.794C159.796 42.226 159.304 42.556 158.716 42.784C158.14 43.012 157.468 43.126 156.7 43.126C155.944 43.126 155.278 43.012 154.702 42.784C154.126 42.544 153.64 42.214 153.244 41.794C152.86 41.362 152.566 40.846 152.362 40.246C152.17 39.646 152.074 38.98 152.074 38.248C152.074 37.516 152.17 36.85 152.362 36.25C152.566 35.65 152.866 35.14 153.262 34.72C153.658 34.288 154.144 33.952 154.72 33.712C155.296 33.472 155.956 33.352 156.7 33.352ZM156.7 41.344C157.168 41.344 157.564 41.266 157.888 41.11C158.224 40.942 158.494 40.72 158.698 40.444C158.914 40.168 159.07 39.844 159.166 39.472C159.274 39.1 159.328 38.698 159.328 38.266C159.328 37.834 159.274 37.432 159.166 37.06C159.07 36.676 158.914 36.346 158.698 36.07C158.494 35.794 158.224 35.578 157.888 35.422C157.564 35.266 157.168 35.188 156.7 35.188C156.244 35.188 155.854 35.266 155.53 35.422C155.206 35.578 154.936 35.794 154.72 36.07C154.504 36.346 154.342 36.676 154.234 37.06C154.138 37.432 154.09 37.834 154.09 38.266C154.09 38.698 154.138 39.1 154.234 39.472C154.342 39.844 154.498 40.168 154.702 40.444C154.918 40.72 155.188 40.942 155.512 41.11C155.848 41.266 156.244 41.344 156.7 41.344ZM163.245 43V33.514H165.171L165.279 34.864C166.011 33.856 167.007 33.352 168.267 33.352C168.387 33.352 168.501 33.358 168.609 33.37C168.729 33.37 168.837 33.376 168.933 33.388V35.296C168.789 35.296 168.645 35.302 168.501 35.314C168.369 35.314 168.237 35.314 168.105 35.314C167.577 35.326 167.133 35.422 166.773 35.602C166.425 35.77 166.137 35.998 165.909 36.286C165.693 36.574 165.537 36.916 165.441 37.312C165.345 37.696 165.297 38.11 165.297 38.554V43H163.245ZM183.236 30.274L185.522 40.93L187.934 30.274H190.184L186.98 43H184.028L181.706 32.38L179.384 43H176.396L173.084 30.274H175.46L177.926 40.93L180.248 30.274H183.236ZM193.15 38.95C193.174 39.298 193.246 39.622 193.366 39.922C193.486 40.222 193.648 40.486 193.852 40.714C194.068 40.93 194.326 41.104 194.626 41.236C194.938 41.368 195.298 41.434 195.706 41.434C196.138 41.434 196.534 41.356 196.894 41.2C197.254 41.044 197.518 40.774 197.686 40.39H199.792C199.672 40.87 199.474 41.284 199.198 41.632C198.934 41.98 198.616 42.268 198.244 42.496C197.884 42.712 197.482 42.874 197.038 42.982C196.606 43.078 196.144 43.126 195.652 43.126C194.896 43.126 194.23 43.012 193.654 42.784C193.09 42.556 192.616 42.226 192.232 41.794C191.848 41.362 191.56 40.852 191.368 40.264C191.188 39.664 191.098 38.992 191.098 38.248C191.098 37.528 191.2 36.874 191.404 36.286C191.608 35.686 191.902 35.17 192.286 34.738C192.682 34.306 193.156 33.97 193.708 33.73C194.26 33.478 194.89 33.352 195.598 33.352C196.342 33.352 196.984 33.478 197.524 33.73C198.064 33.97 198.514 34.3 198.874 34.72C199.246 35.14 199.522 35.632 199.702 36.196C199.882 36.76 199.972 37.372 199.972 38.032C199.972 38.344 199.954 38.65 199.918 38.95H193.15ZM197.974 37.402C197.95 36.682 197.722 36.124 197.29 35.728C196.858 35.332 196.3 35.134 195.616 35.134C195.232 35.134 194.896 35.194 194.608 35.314C194.32 35.434 194.074 35.596 193.87 35.8C193.678 36.004 193.522 36.244 193.402 36.52C193.282 36.796 193.204 37.09 193.168 37.402H197.974ZM202.999 29.572C203.371 29.572 203.677 29.686 203.917 29.914C204.169 30.142 204.295 30.454 204.295 30.85C204.295 31.234 204.169 31.54 203.917 31.768C203.677 31.996 203.371 32.11 202.999 32.11C202.603 32.11 202.285 31.996 202.045 31.768C201.805 31.54 201.685 31.234 201.685 30.85C201.685 30.454 201.805 30.142 202.045 29.914C202.285 29.686 202.603 29.572 202.999 29.572ZM201.955 43V33.514H204.007V43H201.955ZM215.382 41.326C215.358 41.854 215.346 42.382 215.346 42.91C215.346 43.438 215.274 43.972 215.13 44.512C214.842 45.532 214.32 46.294 213.564 46.798C212.808 47.302 211.866 47.554 210.738 47.554C210.21 47.554 209.706 47.494 209.226 47.374C208.758 47.254 208.332 47.068 207.948 46.816C207.576 46.564 207.258 46.24 206.994 45.844C206.73 45.46 206.556 44.992 206.472 44.44H208.614C208.71 44.872 208.962 45.196 209.37 45.412C209.79 45.628 210.252 45.736 210.756 45.736C211.332 45.736 211.788 45.628 212.124 45.412C212.472 45.208 212.736 44.92 212.916 44.548C213.096 44.188 213.21 43.768 213.258 43.288C213.306 42.82 213.33 42.322 213.33 41.794C213.03 42.262 212.64 42.604 212.16 42.82C211.692 43.036 211.104 43.15 210.396 43.162C209.58 43.15 208.902 43.018 208.362 42.766C207.834 42.502 207.396 42.148 207.048 41.704C206.7 41.26 206.442 40.75 206.274 40.174C206.106 39.598 206.022 38.986 206.022 38.338C206.022 37.618 206.112 36.958 206.292 36.358C206.484 35.758 206.766 35.236 207.138 34.792C207.51 34.348 207.972 34 208.524 33.748C209.076 33.496 209.718 33.37 210.45 33.37C211.074 33.37 211.626 33.478 212.106 33.694C212.598 33.898 213.024 34.216 213.384 34.648L213.546 33.514H215.382V41.326ZM210.666 35.224C210.21 35.224 209.814 35.302 209.478 35.458C209.154 35.614 208.884 35.83 208.668 36.106C208.464 36.382 208.308 36.712 208.2 37.096C208.104 37.468 208.056 37.87 208.056 38.302C208.056 38.734 208.104 39.136 208.2 39.508C208.308 39.868 208.47 40.186 208.686 40.462C208.902 40.738 209.172 40.96 209.496 41.128C209.832 41.284 210.228 41.362 210.684 41.362C211.152 41.362 211.548 41.272 211.872 41.092C212.208 40.912 212.484 40.678 212.7 40.39C212.916 40.09 213.078 39.754 213.186 39.382C213.294 39.01 213.348 38.626 213.348 38.23C213.348 37.822 213.294 37.432 213.186 37.06C213.078 36.688 212.91 36.37 212.682 36.106C212.466 35.83 212.19 35.614 211.854 35.458C211.518 35.302 211.122 35.224 210.666 35.224ZM217.614 43V30.274H219.666V34.828C220.002 34.324 220.434 33.946 220.962 33.694C221.502 33.442 222.066 33.316 222.654 33.316C223.326 33.316 223.89 33.43 224.346 33.658C224.814 33.886 225.192 34.198 225.48 34.594C225.78 34.978 225.99 35.44 226.11 35.98C226.242 36.52 226.308 37.114 226.308 37.762V43H224.256V38.086C224.256 37.678 224.226 37.3 224.166 36.952C224.106 36.592 223.998 36.28 223.842 36.016C223.686 35.74 223.464 35.524 223.176 35.368C222.888 35.212 222.522 35.134 222.078 35.134C221.694 35.134 221.334 35.236 220.998 35.44C220.662 35.632 220.392 35.89 220.188 36.214C219.996 36.538 219.858 36.886 219.774 37.258C219.702 37.618 219.666 37.972 219.666 38.32V43H217.614ZM231.321 33.514H234.165V35.296H231.321V39.472C231.321 39.712 231.333 39.94 231.357 40.156C231.393 40.372 231.453 40.57 231.537 40.75C231.633 40.918 231.765 41.056 231.933 41.164C232.101 41.272 232.329 41.326 232.617 41.326C233.121 41.326 233.553 41.176 233.913 40.876L234.597 42.406C234.285 42.646 233.925 42.826 233.517 42.946C233.109 43.054 232.707 43.108 232.311 43.108C231.279 43.108 230.517 42.85 230.025 42.334C229.533 41.806 229.287 40.984 229.287 39.868V35.296H227.793V33.514H229.287V30.814H231.321V33.514ZM240.747 43V30.274H242.799V43H240.747ZM249.302 33.352C250.058 33.352 250.724 33.472 251.3 33.712C251.876 33.952 252.362 34.288 252.758 34.72C253.166 35.14 253.472 35.65 253.676 36.25C253.88 36.85 253.982 37.516 253.982 38.248C253.982 38.992 253.88 39.664 253.676 40.264C253.484 40.852 253.19 41.362 252.794 41.794C252.398 42.226 251.906 42.556 251.318 42.784C250.742 43.012 250.07 43.126 249.302 43.126C248.546 43.126 247.88 43.012 247.304 42.784C246.728 42.544 246.242 42.214 245.846 41.794C245.462 41.362 245.168 40.846 244.964 40.246C244.772 39.646 244.676 38.98 244.676 38.248C244.676 37.516 244.772 36.85 244.964 36.25C245.168 35.65 245.468 35.14 245.864 34.72C246.26 34.288 246.746 33.952 247.322 33.712C247.898 33.472 248.558 33.352 249.302 33.352ZM249.302 41.344C249.77 41.344 250.166 41.266 250.49 41.11C250.826 40.942 251.096 40.72 251.3 40.444C251.516 40.168 251.672 39.844 251.768 39.472C251.876 39.1 251.93 38.698 251.93 38.266C251.93 37.834 251.876 37.432 251.768 37.06C251.672 36.676 251.516 36.346 251.3 36.07C251.096 35.794 250.826 35.578 250.49 35.422C250.166 35.266 249.77 35.188 249.302 35.188C248.846 35.188 248.456 35.266 248.132 35.422C247.808 35.578 247.538 35.794 247.322 36.07C247.106 36.346 246.944 36.676 246.836 37.06C246.74 37.432 246.692 37.834 246.692 38.266C246.692 38.698 246.74 39.1 246.836 39.472C246.944 39.844 247.1 40.168 247.304 40.444C247.52 40.72 247.79 40.942 248.114 41.11C248.45 41.266 248.846 41.344 249.302 41.344ZM259.32 35.062C259.14 35.062 258.948 35.074 258.744 35.098C258.552 35.122 258.366 35.176 258.186 35.26C258.018 35.332 257.874 35.44 257.754 35.584C257.646 35.728 257.592 35.914 257.592 36.142C257.592 36.394 257.676 36.592 257.844 36.736C258.024 36.88 258.234 37 258.474 37.096C258.714 37.18 258.966 37.252 259.23 37.312C259.506 37.36 259.74 37.402 259.932 37.438C260.448 37.546 260.91 37.66 261.318 37.78C261.738 37.9 262.092 38.062 262.38 38.266C262.668 38.458 262.89 38.71 263.046 39.022C263.214 39.334 263.298 39.742 263.298 40.246C263.298 40.786 263.184 41.242 262.956 41.614C262.74 41.986 262.452 42.286 262.092 42.514C261.744 42.73 261.342 42.886 260.886 42.982C260.442 43.078 259.98 43.126 259.5 43.126C259.02 43.126 258.546 43.078 258.078 42.982C257.61 42.886 257.178 42.724 256.782 42.496C256.398 42.268 256.074 41.968 255.81 41.596C255.558 41.212 255.402 40.75 255.342 40.21H257.412C257.46 40.45 257.562 40.648 257.718 40.804C257.874 40.96 258.054 41.086 258.258 41.182C258.474 41.278 258.696 41.344 258.924 41.38C259.152 41.416 259.362 41.434 259.554 41.434C259.698 41.434 259.872 41.422 260.076 41.398C260.292 41.374 260.49 41.32 260.67 41.236C260.85 41.152 261 41.044 261.12 40.912C261.252 40.768 261.318 40.588 261.318 40.372C261.318 40.168 261.27 40 261.174 39.868C261.078 39.724 260.946 39.604 260.778 39.508C260.622 39.412 260.43 39.34 260.202 39.292C259.974 39.232 259.734 39.172 259.482 39.112C259.086 39.04 258.66 38.95 258.204 38.842C257.76 38.734 257.34 38.596 256.944 38.428C256.56 38.248 256.242 37.984 255.99 37.636C255.738 37.288 255.612 36.844 255.612 36.304C255.612 35.728 255.726 35.254 255.954 34.882C256.182 34.51 256.476 34.21 256.836 33.982C257.196 33.742 257.598 33.58 258.042 33.496C258.486 33.4 258.924 33.352 259.356 33.352C260.4 33.352 261.252 33.592 261.912 34.072C262.584 34.552 262.95 35.248 263.01 36.16H261.084C261.024 35.776 260.826 35.506 260.49 35.35C260.166 35.182 259.776 35.086 259.32 35.062ZM268.514 35.062C268.334 35.062 268.142 35.074 267.938 35.098C267.746 35.122 267.56 35.176 267.38 35.26C267.212 35.332 267.068 35.44 266.948 35.584C266.84 35.728 266.786 35.914 266.786 36.142C266.786 36.394 266.87 36.592 267.038 36.736C267.218 36.88 267.428 37 267.668 37.096C267.908 37.18 268.16 37.252 268.424 37.312C268.7 37.36 268.934 37.402 269.126 37.438C269.642 37.546 270.104 37.66 270.512 37.78C270.932 37.9 271.286 38.062 271.574 38.266C271.862 38.458 272.084 38.71 272.24 39.022C272.408 39.334 272.492 39.742 272.492 40.246C272.492 40.786 272.378 41.242 272.15 41.614C271.934 41.986 271.646 42.286 271.286 42.514C270.938 42.73 270.536 42.886 270.08 42.982C269.636 43.078 269.174 43.126 268.694 43.126C268.214 43.126 267.74 43.078 267.272 42.982C266.804 42.886 266.372 42.724 265.976 42.496C265.592 42.268 265.268 41.968 265.004 41.596C264.752 41.212 264.596 40.75 264.536 40.21H266.606C266.654 40.45 266.756 40.648 266.912 40.804C267.068 40.96 267.248 41.086 267.452 41.182C267.668 41.278 267.89 41.344 268.118 41.38C268.346 41.416 268.556 41.434 268.748 41.434C268.892 41.434 269.066 41.422 269.27 41.398C269.486 41.374 269.684 41.32 269.864 41.236C270.044 41.152 270.194 41.044 270.314 40.912C270.446 40.768 270.512 40.588 270.512 40.372C270.512 40.168 270.464 40 270.368 39.868C270.272 39.724 270.14 39.604 269.972 39.508C269.816 39.412 269.624 39.34 269.396 39.292C269.168 39.232 268.928 39.172 268.676 39.112C268.28 39.04 267.854 38.95 267.398 38.842C266.954 38.734 266.534 38.596 266.138 38.428C265.754 38.248 265.436 37.984 265.184 37.636C264.932 37.288 264.806 36.844 264.806 36.304C264.806 35.728 264.92 35.254 265.148 34.882C265.376 34.51 265.67 34.21 266.03 33.982C266.39 33.742 266.792 33.58 267.236 33.496C267.68 33.4 268.118 33.352 268.55 33.352C269.594 33.352 270.446 33.592 271.106 34.072C271.778 34.552 272.144 35.248 272.204 36.16H270.278C270.218 35.776 270.02 35.506 269.684 35.35C269.36 35.182 268.97 35.086 268.514 35.062Z" fill="#0F172A"/>
</g>
<path d="M19.72 233.144V243.82H29.852V247.9H19.72V258.78H15.3V247.9H5.372V243.82H15.3V233.144H19.72Z" fill="white"/>
<g filter="url(#filter1_b_301_2143)">
<path d="M36 247.5C36 234.521 46.5213 224 59.5 224H319.5C332.479 224 343 234.521 343 247.5C343 260.479 332.479 271 319.5 271H59.5C46.5213 271 36 260.479 36 247.5Z" fill="white" fill-opacity="0.5"/>
<path d="M57.476 253V240.274H66.206V242.146H59.564V246.178H65.252V248.032H59.564V253H57.476ZM71.7004 243.352C72.4564 243.352 73.1224 243.472 73.6984 243.712C74.2744 243.952 74.7604 244.288 75.1564 244.72C75.5644 245.14 75.8704 245.65 76.0744 246.25C76.2784 246.85 76.3804 247.516 76.3804 248.248C76.3804 248.992 76.2784 249.664 76.0744 250.264C75.8824 250.852 75.5884 251.362 75.1924 251.794C74.7964 252.226 74.3044 252.556 73.7164 252.784C73.1404 253.012 72.4684 253.126 71.7004 253.126C70.9444 253.126 70.2784 253.012 69.7024 252.784C69.1264 252.544 68.6404 252.214 68.2444 251.794C67.8604 251.362 67.5664 250.846 67.3624 250.246C67.1704 249.646 67.0744 248.98 67.0744 248.248C67.0744 247.516 67.1704 246.85 67.3624 246.25C67.5664 245.65 67.8664 245.14 68.2624 244.72C68.6584 244.288 69.1444 243.952 69.7204 243.712C70.2964 243.472 70.9564 243.352 71.7004 243.352ZM71.7004 251.344C72.1684 251.344 72.5644 251.266 72.8884 251.11C73.2244 250.942 73.4944 250.72 73.6984 250.444C73.9144 250.168 74.0704 249.844 74.1664 249.472C74.2744 249.1 74.3284 248.698 74.3284 248.266C74.3284 247.834 74.2744 247.432 74.1664 247.06C74.0704 246.676 73.9144 246.346 73.6984 246.07C73.4944 245.794 73.2244 245.578 72.8884 245.422C72.5644 245.266 72.1684 245.188 71.7004 245.188C71.2444 245.188 70.8544 245.266 70.5304 245.422C70.2064 245.578 69.9364 245.794 69.7204 246.07C69.5044 246.346 69.3424 246.676 69.2344 247.06C69.1384 247.432 69.0904 247.834 69.0904 248.266C69.0904 248.698 69.1384 249.1 69.2344 249.472C69.3424 249.844 69.4984 250.168 69.7024 250.444C69.9184 250.72 70.1884 250.942 70.5124 251.11C70.8484 251.266 71.2444 251.344 71.7004 251.344ZM78.2449 253V243.514H80.1709L80.2789 244.864C81.0109 243.856 82.0069 243.352 83.2669 243.352C83.3869 243.352 83.5009 243.358 83.6089 243.37C83.7289 243.37 83.8369 243.376 83.9329 243.388V245.296C83.7889 245.296 83.6449 245.302 83.5009 245.314C83.3689 245.314 83.2369 245.314 83.1049 245.314C82.5769 245.326 82.1329 245.422 81.7729 245.602C81.4249 245.77 81.1369 245.998 80.9089 246.286C80.6929 246.574 80.5369 246.916 80.4409 247.312C80.3449 247.696 80.2969 248.11 80.2969 248.554V253H78.2449ZM96.2301 251.83C95.9181 252.274 95.5041 252.604 94.9881 252.82C94.4721 253.024 93.8961 253.126 93.2601 253.126C92.7561 253.126 92.2941 253.066 91.8741 252.946C91.4661 252.826 91.1061 252.646 90.7941 252.406C90.4821 252.154 90.2361 251.848 90.0561 251.488C89.8761 251.116 89.7861 250.696 89.7861 250.228C89.7861 249.712 89.8881 249.274 90.0921 248.914C90.2961 248.542 90.5721 248.242 90.9201 248.014C91.2801 247.786 91.7001 247.618 92.1801 247.51C92.6601 247.39 93.1641 247.33 93.6921 247.33H96.1221C96.1221 246.634 95.9661 246.094 95.6541 245.71C95.3421 245.326 94.7961 245.128 94.0161 245.116C93.5601 245.116 93.1641 245.194 92.8281 245.35C92.5041 245.506 92.2881 245.764 92.1801 246.124H90.0741C90.1461 245.62 90.3081 245.194 90.5601 244.846C90.8241 244.498 91.1361 244.21 91.4961 243.982C91.8681 243.754 92.2761 243.592 92.7201 243.496C93.1761 243.4 93.6321 243.352 94.0881 243.352C94.6761 243.352 95.2221 243.43 95.7261 243.586C96.2301 243.742 96.6681 244.006 97.0401 244.378C97.4601 244.81 97.7421 245.326 97.8861 245.926C98.0301 246.526 98.1021 247.18 98.1021 247.888V253H96.3201L96.2301 251.83ZM96.1221 248.788H94.1421C93.7941 248.788 93.4461 248.818 93.0981 248.878C92.7501 248.926 92.4501 249.052 92.1981 249.256C91.9581 249.448 91.8381 249.73 91.8381 250.102C91.8381 250.558 92.0001 250.906 92.3241 251.146C92.6601 251.374 93.0681 251.488 93.5481 251.488C93.9201 251.488 94.2621 251.44 94.5741 251.344C94.8981 251.248 95.1741 251.092 95.4021 250.876C95.6301 250.648 95.8041 250.366 95.9241 250.03C96.0561 249.682 96.1221 249.268 96.1221 248.788ZM105.157 253V240.274H107.209V244.846C107.557 244.366 108.013 244 108.577 243.748C109.153 243.484 109.735 243.352 110.323 243.352C110.983 243.352 111.571 243.472 112.087 243.712C112.603 243.94 113.041 244.27 113.401 244.702C113.761 245.122 114.031 245.632 114.211 246.232C114.403 246.82 114.499 247.486 114.499 248.23C114.499 248.914 114.415 249.556 114.247 250.156C114.079 250.744 113.821 251.26 113.473 251.704C113.125 252.148 112.687 252.496 112.159 252.748C111.643 253 111.031 253.126 110.323 253.126C108.967 253.126 107.929 252.688 107.209 251.812C107.197 252.016 107.185 252.214 107.173 252.406C107.173 252.598 107.173 252.796 107.173 253H105.157ZM109.891 251.344C110.335 251.344 110.719 251.266 111.043 251.11C111.367 250.942 111.631 250.72 111.835 250.444C112.051 250.168 112.207 249.844 112.303 249.472C112.411 249.1 112.465 248.698 112.465 248.266C112.465 247.834 112.411 247.432 112.303 247.06C112.207 246.676 112.051 246.346 111.835 246.07C111.631 245.794 111.361 245.578 111.025 245.422C110.701 245.266 110.311 245.188 109.855 245.188C109.387 245.188 108.985 245.278 108.649 245.458C108.325 245.638 108.055 245.878 107.839 246.178C107.623 246.466 107.461 246.796 107.353 247.168C107.245 247.54 107.191 247.912 107.191 248.284C107.191 248.692 107.245 249.082 107.353 249.454C107.461 249.814 107.623 250.132 107.839 250.408C108.055 250.684 108.331 250.912 108.667 251.092C109.003 251.26 109.411 251.344 109.891 251.344ZM118.064 248.95C118.088 249.298 118.16 249.622 118.28 249.922C118.4 250.222 118.562 250.486 118.766 250.714C118.982 250.93 119.24 251.104 119.54 251.236C119.852 251.368 120.212 251.434 120.62 251.434C121.052 251.434 121.448 251.356 121.808 251.2C122.168 251.044 122.432 250.774 122.6 250.39H124.706C124.586 250.87 124.388 251.284 124.112 251.632C123.848 251.98 123.53 252.268 123.158 252.496C122.798 252.712 122.396 252.874 121.952 252.982C121.52 253.078 121.058 253.126 120.566 253.126C119.81 253.126 119.144 253.012 118.568 252.784C118.004 252.556 117.53 252.226 117.146 251.794C116.762 251.362 116.474 250.852 116.282 250.264C116.102 249.664 116.012 248.992 116.012 248.248C116.012 247.528 116.114 246.874 116.318 246.286C116.522 245.686 116.816 245.17 117.2 244.738C117.596 244.306 118.07 243.97 118.622 243.73C119.174 243.478 119.804 243.352 120.512 243.352C121.256 243.352 121.898 243.478 122.438 243.73C122.978 243.97 123.428 244.3 123.788 244.72C124.16 245.14 124.436 245.632 124.616 246.196C124.796 246.76 124.886 247.372 124.886 248.032C124.886 248.344 124.868 248.65 124.832 248.95H118.064ZM122.888 247.402C122.864 246.682 122.636 246.124 122.204 245.728C121.772 245.332 121.214 245.134 120.53 245.134C120.146 245.134 119.81 245.194 119.522 245.314C119.234 245.434 118.988 245.596 118.784 245.8C118.592 246.004 118.436 246.244 118.316 246.52C118.196 246.796 118.118 247.09 118.082 247.402H122.888ZM129.587 243.514H132.431V245.296H129.587V249.472C129.587 249.712 129.599 249.94 129.623 250.156C129.659 250.372 129.719 250.57 129.803 250.75C129.899 250.918 130.031 251.056 130.199 251.164C130.367 251.272 130.595 251.326 130.883 251.326C131.387 251.326 131.819 251.176 132.179 250.876L132.863 252.406C132.551 252.646 132.191 252.826 131.783 252.946C131.375 253.054 130.973 253.108 130.577 253.108C129.545 253.108 128.783 252.85 128.291 252.334C127.799 251.806 127.553 250.984 127.553 249.868V245.296H126.059V243.514H127.553V240.814H129.587V243.514ZM137.005 243.514H139.849V245.296H137.005V249.472C137.005 249.712 137.017 249.94 137.041 250.156C137.077 250.372 137.137 250.57 137.221 250.75C137.317 250.918 137.449 251.056 137.617 251.164C137.785 251.272 138.013 251.326 138.301 251.326C138.805 251.326 139.237 251.176 139.597 250.876L140.281 252.406C139.969 252.646 139.609 252.826 139.201 252.946C138.793 253.054 138.391 253.108 137.995 253.108C136.963 253.108 136.201 252.85 135.709 252.334C135.217 251.806 134.971 250.984 134.971 249.868V245.296H133.477V243.514H134.971V240.814H137.005V243.514ZM143.271 248.95C143.295 249.298 143.367 249.622 143.487 249.922C143.607 250.222 143.769 250.486 143.973 250.714C144.189 250.93 144.447 251.104 144.747 251.236C145.059 251.368 145.419 251.434 145.827 251.434C146.259 251.434 146.655 251.356 147.015 251.2C147.375 251.044 147.639 250.774 147.807 250.39H149.913C149.793 250.87 149.595 251.284 149.319 251.632C149.055 251.98 148.737 252.268 148.365 252.496C148.005 252.712 147.603 252.874 147.159 252.982C146.727 253.078 146.265 253.126 145.773 253.126C145.017 253.126 144.351 253.012 143.775 252.784C143.211 252.556 142.737 252.226 142.353 251.794C141.969 251.362 141.681 250.852 141.489 250.264C141.309 249.664 141.219 248.992 141.219 248.248C141.219 247.528 141.321 246.874 141.525 246.286C141.729 245.686 142.023 245.17 142.407 244.738C142.803 244.306 143.277 243.97 143.829 243.73C144.381 243.478 145.011 243.352 145.719 243.352C146.463 243.352 147.105 243.478 147.645 243.73C148.185 243.97 148.635 244.3 148.995 244.72C149.367 245.14 149.643 245.632 149.823 246.196C150.003 246.76 150.093 247.372 150.093 248.032C150.093 248.344 150.075 248.65 150.039 248.95H143.271ZM148.095 247.402C148.071 246.682 147.843 246.124 147.411 245.728C146.979 245.332 146.421 245.134 145.737 245.134C145.353 245.134 145.017 245.194 144.729 245.314C144.441 245.434 144.195 245.596 143.991 245.8C143.799 246.004 143.643 246.244 143.523 246.52C143.403 246.796 143.325 247.09 143.289 247.402H148.095ZM151.95 253V243.514H153.876L153.984 244.864C154.716 243.856 155.712 243.352 156.972 243.352C157.092 243.352 157.206 243.358 157.314 243.37C157.434 243.37 157.542 243.376 157.638 243.388V245.296C157.494 245.296 157.35 245.302 157.206 245.314C157.074 245.314 156.942 245.314 156.81 245.314C156.282 245.326 155.838 245.422 155.478 245.602C155.13 245.77 154.842 245.998 154.614 246.286C154.398 246.574 154.242 246.916 154.146 247.312C154.05 247.696 154.002 248.11 154.002 248.554V253H151.95ZM162.735 243.514H165.003L167.631 251.038L170.241 243.514H172.509L168.945 253H166.299L162.735 243.514ZM175.351 248.95C175.375 249.298 175.447 249.622 175.567 249.922C175.687 250.222 175.849 250.486 176.053 250.714C176.269 250.93 176.527 251.104 176.827 251.236C177.139 251.368 177.499 251.434 177.907 251.434C178.339 251.434 178.735 251.356 179.095 251.2C179.455 251.044 179.719 250.774 179.887 250.39H181.993C181.873 250.87 181.675 251.284 181.399 251.632C181.135 251.98 180.817 252.268 180.445 252.496C180.085 252.712 179.683 252.874 179.239 252.982C178.807 253.078 178.345 253.126 177.853 253.126C177.097 253.126 176.431 253.012 175.855 252.784C175.291 252.556 174.817 252.226 174.433 251.794C174.049 251.362 173.761 250.852 173.569 250.264C173.389 249.664 173.299 248.992 173.299 248.248C173.299 247.528 173.401 246.874 173.605 246.286C173.809 245.686 174.103 245.17 174.487 244.738C174.883 244.306 175.357 243.97 175.909 243.73C176.461 243.478 177.091 243.352 177.799 243.352C178.543 243.352 179.185 243.478 179.725 243.73C180.265 243.97 180.715 244.3 181.075 244.72C181.447 245.14 181.723 245.632 181.903 246.196C182.083 246.76 182.173 247.372 182.173 248.032C182.173 248.344 182.155 248.65 182.119 248.95H175.351ZM180.175 247.402C180.151 246.682 179.923 246.124 179.491 245.728C179.059 245.332 178.501 245.134 177.817 245.134C177.433 245.134 177.097 245.194 176.809 245.314C176.521 245.434 176.275 245.596 176.071 245.8C175.879 246.004 175.723 246.244 175.603 246.52C175.483 246.796 175.405 247.09 175.369 247.402H180.175ZM184.03 253V243.514H185.956L186.064 244.864C186.796 243.856 187.792 243.352 189.052 243.352C189.172 243.352 189.286 243.358 189.394 243.37C189.514 243.37 189.622 243.376 189.718 243.388V245.296C189.574 245.296 189.43 245.302 189.286 245.314C189.154 245.314 189.022 245.314 188.89 245.314C188.362 245.326 187.918 245.422 187.558 245.602C187.21 245.77 186.922 245.998 186.694 246.286C186.478 246.574 186.322 246.916 186.226 247.312C186.13 247.696 186.082 248.11 186.082 248.554V253H184.03ZM194.342 245.062C194.162 245.062 193.97 245.074 193.766 245.098C193.574 245.122 193.388 245.176 193.208 245.26C193.04 245.332 192.896 245.44 192.776 245.584C192.668 245.728 192.614 245.914 192.614 246.142C192.614 246.394 192.698 246.592 192.866 246.736C193.046 246.88 193.256 247 193.496 247.096C193.736 247.18 193.988 247.252 194.252 247.312C194.528 247.36 194.762 247.402 194.954 247.438C195.47 247.546 195.932 247.66 196.34 247.78C196.76 247.9 197.114 248.062 197.402 248.266C197.69 248.458 197.912 248.71 198.068 249.022C198.236 249.334 198.32 249.742 198.32 250.246C198.32 250.786 198.206 251.242 197.978 251.614C197.762 251.986 197.474 252.286 197.114 252.514C196.766 252.73 196.364 252.886 195.908 252.982C195.464 253.078 195.002 253.126 194.522 253.126C194.042 253.126 193.568 253.078 193.1 252.982C192.632 252.886 192.2 252.724 191.804 252.496C191.42 252.268 191.096 251.968 190.832 251.596C190.58 251.212 190.424 250.75 190.364 250.21H192.434C192.482 250.45 192.584 250.648 192.74 250.804C192.896 250.96 193.076 251.086 193.28 251.182C193.496 251.278 193.718 251.344 193.946 251.38C194.174 251.416 194.384 251.434 194.576 251.434C194.72 251.434 194.894 251.422 195.098 251.398C195.314 251.374 195.512 251.32 195.692 251.236C195.872 251.152 196.022 251.044 196.142 250.912C196.274 250.768 196.34 250.588 196.34 250.372C196.34 250.168 196.292 250 196.196 249.868C196.1 249.724 195.968 249.604 195.8 249.508C195.644 249.412 195.452 249.34 195.224 249.292C194.996 249.232 194.756 249.172 194.504 249.112C194.108 249.04 193.682 248.95 193.226 248.842C192.782 248.734 192.362 248.596 191.966 248.428C191.582 248.248 191.264 247.984 191.012 247.636C190.76 247.288 190.634 246.844 190.634 246.304C190.634 245.728 190.748 245.254 190.976 244.882C191.204 244.51 191.498 244.21 191.858 243.982C192.218 243.742 192.62 243.58 193.064 243.496C193.508 243.4 193.946 243.352 194.378 243.352C195.422 243.352 196.274 243.592 196.934 244.072C197.606 244.552 197.972 245.248 198.032 246.16H196.106C196.046 245.776 195.848 245.506 195.512 245.35C195.188 245.182 194.798 245.086 194.342 245.062ZM201.231 239.572C201.603 239.572 201.909 239.686 202.149 239.914C202.401 240.142 202.527 240.454 202.527 240.85C202.527 241.234 202.401 241.54 202.149 241.768C201.909 241.996 201.603 242.11 201.231 242.11C200.835 242.11 200.517 241.996 200.277 241.768C200.037 241.54 199.917 241.234 199.917 240.85C199.917 240.454 200.037 240.142 200.277 239.914C200.517 239.686 200.835 239.572 201.231 239.572ZM200.187 253V243.514H202.239V253H200.187ZM208.88 243.352C209.636 243.352 210.302 243.472 210.878 243.712C211.454 243.952 211.94 244.288 212.336 244.72C212.744 245.14 213.05 245.65 213.254 246.25C213.458 246.85 213.56 247.516 213.56 248.248C213.56 248.992 213.458 249.664 213.254 250.264C213.062 250.852 212.768 251.362 212.372 251.794C211.976 252.226 211.484 252.556 210.896 252.784C210.32 253.012 209.648 253.126 208.88 253.126C208.124 253.126 207.458 253.012 206.882 252.784C206.306 252.544 205.82 252.214 205.424 251.794C205.04 251.362 204.746 250.846 204.542 250.246C204.35 249.646 204.254 248.98 204.254 248.248C204.254 247.516 204.35 246.85 204.542 246.25C204.746 245.65 205.046 245.14 205.442 244.72C205.838 244.288 206.324 243.952 206.9 243.712C207.476 243.472 208.136 243.352 208.88 243.352ZM208.88 251.344C209.348 251.344 209.744 251.266 210.068 251.11C210.404 250.942 210.674 250.72 210.878 250.444C211.094 250.168 211.25 249.844 211.346 249.472C211.454 249.1 211.508 248.698 211.508 248.266C211.508 247.834 211.454 247.432 211.346 247.06C211.25 246.676 211.094 246.346 210.878 246.07C210.674 245.794 210.404 245.578 210.068 245.422C209.744 245.266 209.348 245.188 208.88 245.188C208.424 245.188 208.034 245.266 207.71 245.422C207.386 245.578 207.116 245.794 206.9 246.07C206.684 246.346 206.522 246.676 206.414 247.06C206.318 247.432 206.27 247.834 206.27 248.266C206.27 248.698 206.318 249.1 206.414 249.472C206.522 249.844 206.678 250.168 206.882 250.444C207.098 250.72 207.368 250.942 207.692 251.11C208.028 251.266 208.424 251.344 208.88 251.344ZM215.425 253V243.514H217.387L217.495 244.828C217.843 244.336 218.275 243.97 218.791 243.73C219.319 243.478 219.877 243.352 220.465 243.352C221.137 243.352 221.701 243.466 222.157 243.694C222.625 243.922 223.003 244.234 223.291 244.63C223.591 245.026 223.801 245.494 223.921 246.034C224.053 246.574 224.119 247.162 224.119 247.798V253H222.067V248.104C222.067 247.696 222.037 247.318 221.977 246.97C221.929 246.622 221.827 246.316 221.671 246.052C221.515 245.776 221.293 245.56 221.005 245.404C220.729 245.248 220.369 245.17 219.925 245.17C219.505 245.17 219.121 245.272 218.773 245.476C218.437 245.68 218.173 245.944 217.981 246.268C217.801 246.592 217.669 246.952 217.585 247.348C217.513 247.744 217.477 248.122 217.477 248.482V253H215.425ZM235.405 243.352C236.161 243.352 236.827 243.472 237.403 243.712C237.979 243.952 238.465 244.288 238.861 244.72C239.269 245.14 239.575 245.65 239.779 246.25C239.983 246.85 240.085 247.516 240.085 248.248C240.085 248.992 239.983 249.664 239.779 250.264C239.587 250.852 239.293 251.362 238.897 251.794C238.501 252.226 238.009 252.556 237.421 252.784C236.845 253.012 236.173 253.126 235.405 253.126C234.649 253.126 233.983 253.012 233.407 252.784C232.831 252.544 232.345 252.214 231.949 251.794C231.565 251.362 231.271 250.846 231.067 250.246C230.875 249.646 230.779 248.98 230.779 248.248C230.779 247.516 230.875 246.85 231.067 246.25C231.271 245.65 231.571 245.14 231.967 244.72C232.363 244.288 232.849 243.952 233.425 243.712C234.001 243.472 234.661 243.352 235.405 243.352ZM235.405 251.344C235.873 251.344 236.269 251.266 236.593 251.11C236.929 250.942 237.199 250.72 237.403 250.444C237.619 250.168 237.775 249.844 237.871 249.472C237.979 249.1 238.033 248.698 238.033 248.266C238.033 247.834 237.979 247.432 237.871 247.06C237.775 246.676 237.619 246.346 237.403 246.07C237.199 245.794 236.929 245.578 236.593 245.422C236.269 245.266 235.873 245.188 235.405 245.188C234.949 245.188 234.559 245.266 234.235 245.422C233.911 245.578 233.641 245.794 233.425 246.07C233.209 246.346 233.047 246.676 232.939 247.06C232.843 247.432 232.795 247.834 232.795 248.266C232.795 248.698 232.843 249.1 232.939 249.472C233.047 249.844 233.203 250.168 233.407 250.444C233.623 250.72 233.893 250.942 234.217 251.11C234.553 251.266 234.949 251.344 235.405 251.344ZM242.656 253V245.296H241.144V243.514H242.656V242.398C242.656 241.342 242.902 240.568 243.394 240.076C243.898 239.572 244.702 239.32 245.806 239.32H247.102V241.102H245.932C245.428 241.102 245.092 241.234 244.924 241.498C244.756 241.762 244.672 242.14 244.672 242.632V243.514H247.102V245.296H244.672V253H242.656ZM262.142 243.514V251.488C262.142 252.028 262.13 252.58 262.106 253.144C262.094 253.708 261.998 254.26 261.818 254.8C261.542 255.664 261.044 256.342 260.324 256.834C259.604 257.326 258.638 257.572 257.426 257.572C256.706 257.572 256.01 257.476 255.338 257.284C254.678 257.092 254.054 256.774 253.466 256.33C253.598 256.054 253.724 255.766 253.844 255.466C253.976 255.178 254.108 254.89 254.24 254.602C254.636 254.914 255.086 255.178 255.59 255.394C256.106 255.61 256.694 255.718 257.354 255.718C257.99 255.718 258.488 255.61 258.848 255.394C259.208 255.178 259.478 254.884 259.658 254.512C259.85 254.152 259.97 253.732 260.018 253.252C260.078 252.784 260.108 252.304 260.108 251.812C259.772 252.292 259.352 252.634 258.848 252.838C258.356 253.042 257.798 253.144 257.174 253.144C256.466 253.144 255.86 253.036 255.356 252.82C254.852 252.604 254.456 252.304 254.168 251.92C253.88 251.536 253.676 251.08 253.556 250.552C253.436 250.024 253.376 249.448 253.376 248.824V243.514H255.41V248.428C255.41 248.812 255.434 249.184 255.482 249.544C255.542 249.892 255.65 250.204 255.806 250.48C255.974 250.744 256.202 250.96 256.49 251.128C256.778 251.284 257.156 251.362 257.624 251.362C258.104 251.362 258.5 251.266 258.812 251.074C259.136 250.882 259.388 250.636 259.568 250.336C259.76 250.024 259.892 249.67 259.964 249.274C260.048 248.878 260.09 248.47 260.09 248.05V243.514H262.142ZM268.646 243.352C269.402 243.352 270.068 243.472 270.644 243.712C271.22 243.952 271.706 244.288 272.102 244.72C272.51 245.14 272.816 245.65 273.02 246.25C273.224 246.85 273.326 247.516 273.326 248.248C273.326 248.992 273.224 249.664 273.02 250.264C272.828 250.852 272.534 251.362 272.138 251.794C271.742 252.226 271.25 252.556 270.662 252.784C270.086 253.012 269.414 253.126 268.646 253.126C267.89 253.126 267.224 253.012 266.648 252.784C266.072 252.544 265.586 252.214 265.19 251.794C264.806 251.362 264.512 250.846 264.308 250.246C264.116 249.646 264.02 248.98 264.02 248.248C264.02 247.516 264.116 246.85 264.308 246.25C264.512 245.65 264.812 245.14 265.208 244.72C265.604 244.288 266.09 243.952 266.666 243.712C267.242 243.472 267.902 243.352 268.646 243.352ZM268.646 251.344C269.114 251.344 269.51 251.266 269.834 251.11C270.17 250.942 270.44 250.72 270.644 250.444C270.86 250.168 271.016 249.844 271.112 249.472C271.22 249.1 271.274 248.698 271.274 248.266C271.274 247.834 271.22 247.432 271.112 247.06C271.016 246.676 270.86 246.346 270.644 246.07C270.44 245.794 270.17 245.578 269.834 245.422C269.51 245.266 269.114 245.188 268.646 245.188C268.19 245.188 267.8 245.266 267.476 245.422C267.152 245.578 266.882 245.794 266.666 246.07C266.45 246.346 266.288 246.676 266.18 247.06C266.084 247.432 266.036 247.834 266.036 248.266C266.036 248.698 266.084 249.1 266.18 249.472C266.288 249.844 266.444 250.168 266.648 250.444C266.864 250.72 267.134 250.942 267.458 251.11C267.794 251.266 268.19 251.344 268.646 251.344ZM279.348 251.344C280.14 251.344 280.704 251.122 281.04 250.678C281.376 250.234 281.544 249.604 281.544 248.788V243.514H283.578V248.86C283.578 249.652 283.47 250.324 283.254 250.876C283.038 251.416 282.744 251.854 282.372 252.19C282 252.514 281.556 252.754 281.04 252.91C280.536 253.054 279.972 253.126 279.348 253.126C278.028 253.126 276.996 252.784 276.252 252.1C275.52 251.416 275.154 250.336 275.154 248.86V243.514H277.188V248.788C277.188 249.604 277.362 250.234 277.71 250.678C278.07 251.11 278.616 251.332 279.348 251.344ZM285.772 253V243.514H287.698L287.806 244.864C288.538 243.856 289.534 243.352 290.794 243.352C290.914 243.352 291.028 243.358 291.136 243.37C291.256 243.37 291.364 243.376 291.46 243.388V245.296C291.316 245.296 291.172 245.302 291.028 245.314C290.896 245.314 290.764 245.314 290.632 245.314C290.104 245.326 289.66 245.422 289.3 245.602C288.952 245.77 288.664 245.998 288.436 246.286C288.22 246.574 288.064 246.916 287.968 247.312C287.872 247.696 287.824 248.11 287.824 248.554V253H285.772ZM296.084 245.062C295.904 245.062 295.712 245.074 295.508 245.098C295.316 245.122 295.13 245.176 294.95 245.26C294.782 245.332 294.638 245.44 294.518 245.584C294.41 245.728 294.356 245.914 294.356 246.142C294.356 246.394 294.44 246.592 294.608 246.736C294.788 246.88 294.998 247 295.238 247.096C295.478 247.18 295.73 247.252 295.994 247.312C296.27 247.36 296.504 247.402 296.696 247.438C297.212 247.546 297.674 247.66 298.082 247.78C298.502 247.9 298.856 248.062 299.144 248.266C299.432 248.458 299.654 248.71 299.81 249.022C299.978 249.334 300.062 249.742 300.062 250.246C300.062 250.786 299.948 251.242 299.72 251.614C299.504 251.986 299.216 252.286 298.856 252.514C298.508 252.73 298.106 252.886 297.65 252.982C297.206 253.078 296.744 253.126 296.264 253.126C295.784 253.126 295.31 253.078 294.842 252.982C294.374 252.886 293.942 252.724 293.546 252.496C293.162 252.268 292.838 251.968 292.574 251.596C292.322 251.212 292.166 250.75 292.106 250.21H294.176C294.224 250.45 294.326 250.648 294.482 250.804C294.638 250.96 294.818 251.086 295.022 251.182C295.238 251.278 295.46 251.344 295.688 251.38C295.916 251.416 296.126 251.434 296.318 251.434C296.462 251.434 296.636 251.422 296.84 251.398C297.056 251.374 297.254 251.32 297.434 251.236C297.614 251.152 297.764 251.044 297.884 250.912C298.016 250.768 298.082 250.588 298.082 250.372C298.082 250.168 298.034 250 297.938 249.868C297.842 249.724 297.71 249.604 297.542 249.508C297.386 249.412 297.194 249.34 296.966 249.292C296.738 249.232 296.498 249.172 296.246 249.112C295.85 249.04 295.424 248.95 294.968 248.842C294.524 248.734 294.104 248.596 293.708 248.428C293.324 248.248 293.006 247.984 292.754 247.636C292.502 247.288 292.376 246.844 292.376 246.304C292.376 245.728 292.49 245.254 292.718 244.882C292.946 244.51 293.24 244.21 293.6 243.982C293.96 243.742 294.362 243.58 294.806 243.496C295.25 243.4 295.688 243.352 296.12 243.352C297.164 243.352 298.016 243.592 298.676 244.072C299.348 244.552 299.714 245.248 299.774 246.16H297.848C297.788 245.776 297.59 245.506 297.254 245.35C296.93 245.182 296.54 245.086 296.084 245.062ZM303.496 248.95C303.52 249.298 303.592 249.622 303.712 249.922C303.832 250.222 303.994 250.486 304.198 250.714C304.414 250.93 304.672 251.104 304.972 251.236C305.284 251.368 305.644 251.434 306.052 251.434C306.484 251.434 306.88 251.356 307.24 251.2C307.6 251.044 307.864 250.774 308.032 250.39H310.138C310.018 250.87 309.82 251.284 309.544 251.632C309.28 251.98 308.962 252.268 308.59 252.496C308.23 252.712 307.828 252.874 307.384 252.982C306.952 253.078 306.49 253.126 305.998 253.126C305.242 253.126 304.576 253.012 304 252.784C303.436 252.556 302.962 252.226 302.578 251.794C302.194 251.362 301.906 250.852 301.714 250.264C301.534 249.664 301.444 248.992 301.444 248.248C301.444 247.528 301.546 246.874 301.75 246.286C301.954 245.686 302.248 245.17 302.632 244.738C303.028 244.306 303.502 243.97 304.054 243.73C304.606 243.478 305.236 243.352 305.944 243.352C306.688 243.352 307.33 243.478 307.87 243.73C308.41 243.97 308.86 244.3 309.22 244.72C309.592 245.14 309.868 245.632 310.048 246.196C310.228 246.76 310.318 247.372 310.318 248.032C310.318 248.344 310.3 248.65 310.264 248.95H303.496ZM308.32 247.402C308.296 246.682 308.068 246.124 307.636 245.728C307.204 245.332 306.646 245.134 305.962 245.134C305.578 245.134 305.242 245.194 304.954 245.314C304.666 245.434 304.42 245.596 304.216 245.8C304.024 246.004 303.868 246.244 303.748 246.52C303.628 246.796 303.55 247.09 303.514 247.402H308.32ZM312.175 253V240.274H314.227V253H312.175ZM317.346 253V245.296H315.834V243.514H317.346V242.398C317.346 241.342 317.592 240.568 318.084 240.076C318.588 239.572 319.392 239.32 320.496 239.32H321.792V241.102H320.622C320.118 241.102 319.782 241.234 319.614 241.498C319.446 241.762 319.362 242.14 319.362 242.632V243.514H321.792V245.296H319.362V253H317.346Z" fill="#0F172A"/>
</g>
<path d="M61.72 128.144V138.82H71.852V142.9H61.72V153.78H57.3V142.9H47.372V138.82H57.3V128.144H61.72Z" fill="white"/>
<g filter="url(#filter2_b_301_2143)">
<path d="M78 142.5C78 129.521 88.5213 119 101.5 119H256.5C269.479 119 280 129.521 280 142.5C280 155.479 269.479 166 256.5 166H101.5C88.5213 166 78 155.479 78 142.5Z" fill="white" fill-opacity="0.5"/>
<path d="M99.476 148V135.274H108.206V137.146H101.564V141.178H107.252V143.032H101.564V148H99.476ZM113.7 138.352C114.456 138.352 115.122 138.472 115.698 138.712C116.274 138.952 116.76 139.288 117.156 139.72C117.564 140.14 117.87 140.65 118.074 141.25C118.278 141.85 118.38 142.516 118.38 143.248C118.38 143.992 118.278 144.664 118.074 145.264C117.882 145.852 117.588 146.362 117.192 146.794C116.796 147.226 116.304 147.556 115.716 147.784C115.14 148.012 114.468 148.126 113.7 148.126C112.944 148.126 112.278 148.012 111.702 147.784C111.126 147.544 110.64 147.214 110.244 146.794C109.86 146.362 109.566 145.846 109.362 145.246C109.17 144.646 109.074 143.98 109.074 143.248C109.074 142.516 109.17 141.85 109.362 141.25C109.566 140.65 109.866 140.14 110.262 139.72C110.658 139.288 111.144 138.952 111.72 138.712C112.296 138.472 112.956 138.352 113.7 138.352ZM113.7 146.344C114.168 146.344 114.564 146.266 114.888 146.11C115.224 145.942 115.494 145.72 115.698 145.444C115.914 145.168 116.07 144.844 116.166 144.472C116.274 144.1 116.328 143.698 116.328 143.266C116.328 142.834 116.274 142.432 116.166 142.06C116.07 141.676 115.914 141.346 115.698 141.07C115.494 140.794 115.224 140.578 114.888 140.422C114.564 140.266 114.168 140.188 113.7 140.188C113.244 140.188 112.854 140.266 112.53 140.422C112.206 140.578 111.936 140.794 111.72 141.07C111.504 141.346 111.342 141.676 111.234 142.06C111.138 142.432 111.09 142.834 111.09 143.266C111.09 143.698 111.138 144.1 111.234 144.472C111.342 144.844 111.498 145.168 111.702 145.444C111.918 145.72 112.188 145.942 112.512 146.11C112.848 146.266 113.244 146.344 113.7 146.344ZM120.245 148V138.514H122.171L122.279 139.864C123.011 138.856 124.007 138.352 125.267 138.352C125.387 138.352 125.501 138.358 125.609 138.37C125.729 138.37 125.837 138.376 125.933 138.388V140.296C125.789 140.296 125.645 140.302 125.501 140.314C125.369 140.314 125.237 140.314 125.105 140.314C124.577 140.326 124.133 140.422 123.773 140.602C123.425 140.77 123.137 140.998 122.909 141.286C122.693 141.574 122.537 141.916 122.441 142.312C122.345 142.696 122.297 143.11 122.297 143.554V148H120.245ZM140.236 135.274L142.522 145.93L144.934 135.274H147.184L143.98 148H141.028L138.706 137.38L136.384 148H133.396L130.084 135.274H132.46L134.926 145.93L137.248 135.274H140.236ZM150.15 143.95C150.174 144.298 150.246 144.622 150.366 144.922C150.486 145.222 150.648 145.486 150.852 145.714C151.068 145.93 151.326 146.104 151.626 146.236C151.938 146.368 152.298 146.434 152.706 146.434C153.138 146.434 153.534 146.356 153.894 146.2C154.254 146.044 154.518 145.774 154.686 145.39H156.792C156.672 145.87 156.474 146.284 156.198 146.632C155.934 146.98 155.616 147.268 155.244 147.496C154.884 147.712 154.482 147.874 154.038 147.982C153.606 148.078 153.144 148.126 152.652 148.126C151.896 148.126 151.23 148.012 150.654 147.784C150.09 147.556 149.616 147.226 149.232 146.794C148.848 146.362 148.56 145.852 148.368 145.264C148.188 144.664 148.098 143.992 148.098 143.248C148.098 142.528 148.2 141.874 148.404 141.286C148.608 140.686 148.902 140.17 149.286 139.738C149.682 139.306 150.156 138.97 150.708 138.73C151.26 138.478 151.89 138.352 152.598 138.352C153.342 138.352 153.984 138.478 154.524 138.73C155.064 138.97 155.514 139.3 155.874 139.72C156.246 140.14 156.522 140.632 156.702 141.196C156.882 141.76 156.972 142.372 156.972 143.032C156.972 143.344 156.954 143.65 156.918 143.95H150.15ZM154.974 142.402C154.95 141.682 154.722 141.124 154.29 140.728C153.858 140.332 153.3 140.134 152.616 140.134C152.232 140.134 151.896 140.194 151.608 140.314C151.32 140.434 151.074 140.596 150.87 140.8C150.678 141.004 150.522 141.244 150.402 141.52C150.282 141.796 150.204 142.09 150.168 142.402H154.974ZM159.999 134.572C160.371 134.572 160.677 134.686 160.917 134.914C161.169 135.142 161.295 135.454 161.295 135.85C161.295 136.234 161.169 136.54 160.917 136.768C160.677 136.996 160.371 137.11 159.999 137.11C159.603 137.11 159.285 136.996 159.045 136.768C158.805 136.54 158.685 136.234 158.685 135.85C158.685 135.454 158.805 135.142 159.045 134.914C159.285 134.686 159.603 134.572 159.999 134.572ZM158.955 148V138.514H161.007V148H158.955ZM172.382 146.326C172.358 146.854 172.346 147.382 172.346 147.91C172.346 148.438 172.274 148.972 172.13 149.512C171.842 150.532 171.32 151.294 170.564 151.798C169.808 152.302 168.866 152.554 167.738 152.554C167.21 152.554 166.706 152.494 166.226 152.374C165.758 152.254 165.332 152.068 164.948 151.816C164.576 151.564 164.258 151.24 163.994 150.844C163.73 150.46 163.556 149.992 163.472 149.44H165.614C165.71 149.872 165.962 150.196 166.37 150.412C166.79 150.628 167.252 150.736 167.756 150.736C168.332 150.736 168.788 150.628 169.124 150.412C169.472 150.208 169.736 149.92 169.916 149.548C170.096 149.188 170.21 148.768 170.258 148.288C170.306 147.82 170.33 147.322 170.33 146.794C170.03 147.262 169.64 147.604 169.16 147.82C168.692 148.036 168.104 148.15 167.396 148.162C166.58 148.15 165.902 148.018 165.362 147.766C164.834 147.502 164.396 147.148 164.048 146.704C163.7 146.26 163.442 145.75 163.274 145.174C163.106 144.598 163.022 143.986 163.022 143.338C163.022 142.618 163.112 141.958 163.292 141.358C163.484 140.758 163.766 140.236 164.138 139.792C164.51 139.348 164.972 139 165.524 138.748C166.076 138.496 166.718 138.37 167.45 138.37C168.074 138.37 168.626 138.478 169.106 138.694C169.598 138.898 170.024 139.216 170.384 139.648L170.546 138.514H172.382V146.326ZM167.666 140.224C167.21 140.224 166.814 140.302 166.478 140.458C166.154 140.614 165.884 140.83 165.668 141.106C165.464 141.382 165.308 141.712 165.2 142.096C165.104 142.468 165.056 142.87 165.056 143.302C165.056 143.734 165.104 144.136 165.2 144.508C165.308 144.868 165.47 145.186 165.686 145.462C165.902 145.738 166.172 145.96 166.496 146.128C166.832 146.284 167.228 146.362 167.684 146.362C168.152 146.362 168.548 146.272 168.872 146.092C169.208 145.912 169.484 145.678 169.7 145.39C169.916 145.09 170.078 144.754 170.186 144.382C170.294 144.01 170.348 143.626 170.348 143.23C170.348 142.822 170.294 142.432 170.186 142.06C170.078 141.688 169.91 141.37 169.682 141.106C169.466 140.83 169.19 140.614 168.854 140.458C168.518 140.302 168.122 140.224 167.666 140.224ZM174.614 148V135.274H176.666V139.828C177.002 139.324 177.434 138.946 177.962 138.694C178.502 138.442 179.066 138.316 179.654 138.316C180.326 138.316 180.89 138.43 181.346 138.658C181.814 138.886 182.192 139.198 182.48 139.594C182.78 139.978 182.99 140.44 183.11 140.98C183.242 141.52 183.308 142.114 183.308 142.762V148H181.256V143.086C181.256 142.678 181.226 142.3 181.166 141.952C181.106 141.592 180.998 141.28 180.842 141.016C180.686 140.74 180.464 140.524 180.176 140.368C179.888 140.212 179.522 140.134 179.078 140.134C178.694 140.134 178.334 140.236 177.998 140.44C177.662 140.632 177.392 140.89 177.188 141.214C176.996 141.538 176.858 141.886 176.774 142.258C176.702 142.618 176.666 142.972 176.666 143.32V148H174.614ZM188.321 138.514H191.165V140.296H188.321V144.472C188.321 144.712 188.333 144.94 188.357 145.156C188.393 145.372 188.453 145.57 188.537 145.75C188.633 145.918 188.765 146.056 188.933 146.164C189.101 146.272 189.329 146.326 189.617 146.326C190.121 146.326 190.553 146.176 190.913 145.876L191.597 147.406C191.285 147.646 190.925 147.826 190.517 147.946C190.109 148.054 189.707 148.108 189.311 148.108C188.279 148.108 187.517 147.85 187.025 147.334C186.533 146.806 186.287 145.984 186.287 144.868V140.296H184.793V138.514H186.287V135.814H188.321V138.514ZM203.399 136.984C202.727 136.984 202.145 137.11 201.653 137.362C201.173 137.614 200.777 137.95 200.465 138.37C200.153 138.79 199.919 139.282 199.763 139.846C199.619 140.398 199.547 140.98 199.547 141.592C199.547 142.216 199.625 142.81 199.781 143.374C199.937 143.938 200.171 144.436 200.483 144.868C200.807 145.288 201.215 145.624 201.707 145.876C202.199 146.128 202.781 146.254 203.453 146.254C204.281 146.254 204.971 146.074 205.523 145.714C206.087 145.354 206.441 144.868 206.585 144.256H208.673C208.577 144.868 208.373 145.414 208.061 145.894C207.761 146.374 207.383 146.782 206.927 147.118C206.471 147.442 205.943 147.694 205.343 147.874C204.743 148.042 204.101 148.126 203.417 148.126C202.421 148.126 201.545 147.964 200.789 147.64C200.045 147.316 199.421 146.866 198.917 146.29C198.413 145.714 198.035 145.03 197.783 144.238C197.531 143.446 197.405 142.576 197.405 141.628C197.405 140.704 197.531 139.846 197.783 139.054C198.047 138.25 198.431 137.56 198.935 136.984C199.439 136.396 200.063 135.94 200.807 135.616C201.563 135.28 202.439 135.112 203.435 135.112C204.839 135.112 205.997 135.442 206.909 136.102C207.821 136.762 208.373 137.734 208.565 139.018H206.513C206.357 138.394 206.009 137.902 205.469 137.542C204.929 137.17 204.239 136.984 203.399 136.984ZM214.722 138.352C215.478 138.352 216.144 138.472 216.72 138.712C217.296 138.952 217.782 139.288 218.178 139.72C218.586 140.14 218.892 140.65 219.096 141.25C219.3 141.85 219.402 142.516 219.402 143.248C219.402 143.992 219.3 144.664 219.096 145.264C218.904 145.852 218.61 146.362 218.214 146.794C217.818 147.226 217.326 147.556 216.738 147.784C216.162 148.012 215.49 148.126 214.722 148.126C213.966 148.126 213.3 148.012 212.724 147.784C212.148 147.544 211.662 147.214 211.266 146.794C210.882 146.362 210.588 145.846 210.384 145.246C210.192 144.646 210.096 143.98 210.096 143.248C210.096 142.516 210.192 141.85 210.384 141.25C210.588 140.65 210.888 140.14 211.284 139.72C211.68 139.288 212.166 138.952 212.742 138.712C213.318 138.472 213.978 138.352 214.722 138.352ZM214.722 146.344C215.19 146.344 215.586 146.266 215.91 146.11C216.246 145.942 216.516 145.72 216.72 145.444C216.936 145.168 217.092 144.844 217.188 144.472C217.296 144.1 217.35 143.698 217.35 143.266C217.35 142.834 217.296 142.432 217.188 142.06C217.092 141.676 216.936 141.346 216.72 141.07C216.516 140.794 216.246 140.578 215.91 140.422C215.586 140.266 215.19 140.188 214.722 140.188C214.266 140.188 213.876 140.266 213.552 140.422C213.228 140.578 212.958 140.794 212.742 141.07C212.526 141.346 212.364 141.676 212.256 142.06C212.16 142.432 212.112 142.834 212.112 143.266C212.112 143.698 212.16 144.1 212.256 144.472C212.364 144.844 212.52 145.168 212.724 145.444C212.94 145.72 213.21 145.942 213.534 146.11C213.87 146.266 214.266 146.344 214.722 146.344ZM221.266 148V138.514H223.228L223.336 139.828C223.684 139.336 224.116 138.97 224.632 138.73C225.16 138.478 225.718 138.352 226.306 138.352C226.978 138.352 227.542 138.466 227.998 138.694C228.466 138.922 228.844 139.234 229.132 139.63C229.432 140.026 229.642 140.494 229.762 141.034C229.894 141.574 229.96 142.162 229.96 142.798V148H227.908V143.104C227.908 142.696 227.878 142.318 227.818 141.97C227.77 141.622 227.668 141.316 227.512 141.052C227.356 140.776 227.134 140.56 226.846 140.404C226.57 140.248 226.21 140.17 225.766 140.17C225.346 140.17 224.962 140.272 224.614 140.476C224.278 140.68 224.014 140.944 223.822 141.268C223.642 141.592 223.51 141.952 223.426 142.348C223.354 142.744 223.318 143.122 223.318 143.482V148H221.266ZM234.974 138.514H237.368V140.296H234.974V144.634C234.974 145.174 235.07 145.576 235.262 145.84C235.454 146.104 235.82 146.236 236.36 146.236H237.296V148H236.18C235.016 148 234.182 147.76 233.678 147.28C233.186 146.8 232.94 146.014 232.94 144.922V140.296H231.446V138.514H232.94V135.832H234.974V138.514ZM238.915 148V138.514H240.841L240.949 139.864C241.681 138.856 242.677 138.352 243.937 138.352C244.057 138.352 244.171 138.358 244.279 138.37C244.399 138.37 244.507 138.376 244.603 138.388V140.296C244.459 140.296 244.315 140.302 244.171 140.314C244.039 140.314 243.907 140.314 243.775 140.314C243.247 140.326 242.803 140.422 242.443 140.602C242.095 140.77 241.807 140.998 241.579 141.286C241.363 141.574 241.207 141.916 241.111 142.312C241.015 142.696 240.967 143.11 240.967 143.554V148H238.915ZM250.019 138.352C250.775 138.352 251.441 138.472 252.017 138.712C252.593 138.952 253.079 139.288 253.475 139.72C253.883 140.14 254.189 140.65 254.393 141.25C254.597 141.85 254.699 142.516 254.699 143.248C254.699 143.992 254.597 144.664 254.393 145.264C254.201 145.852 253.907 146.362 253.511 146.794C253.115 147.226 252.623 147.556 252.035 147.784C251.459 148.012 250.787 148.126 250.019 148.126C249.263 148.126 248.597 148.012 248.021 147.784C247.445 147.544 246.959 147.214 246.563 146.794C246.179 146.362 245.885 145.846 245.681 145.246C245.489 144.646 245.393 143.98 245.393 143.248C245.393 142.516 245.489 141.85 245.681 141.25C245.885 140.65 246.185 140.14 246.581 139.72C246.977 139.288 247.463 138.952 248.039 138.712C248.615 138.472 249.275 138.352 250.019 138.352ZM250.019 146.344C250.487 146.344 250.883 146.266 251.207 146.11C251.543 145.942 251.813 145.72 252.017 145.444C252.233 145.168 252.389 144.844 252.485 144.472C252.593 144.1 252.647 143.698 252.647 143.266C252.647 142.834 252.593 142.432 252.485 142.06C252.389 141.676 252.233 141.346 252.017 141.07C251.813 140.794 251.543 140.578 251.207 140.422C250.883 140.266 250.487 140.188 250.019 140.188C249.563 140.188 249.173 140.266 248.849 140.422C248.525 140.578 248.255 140.794 248.039 141.07C247.823 141.346 247.661 141.676 247.553 142.06C247.457 142.432 247.409 142.834 247.409 143.266C247.409 143.698 247.457 144.1 247.553 144.472C247.661 144.844 247.817 145.168 248.021 145.444C248.237 145.72 248.507 145.942 248.831 146.11C249.167 146.266 249.563 146.344 250.019 146.344ZM256.563 148V135.274H258.615V148H256.563Z" fill="#0F172A"/>
</g>
<defs>
<filter id="filter0_b_301_2143" x="101" y="-6" width="213" height="87" filterUnits="userSpaceOnUse" color-interpolation-filters="sRGB">
<feFlood flood-opacity="0" result="BackgroundImageFix"/>
<feGaussianBlur in="BackgroundImageFix" stdDeviation="10"/>
<feComposite in2="SourceAlpha" operator="in" result="effect1_backgroundBlur_301_2143"/>
<feBlend mode="normal" in="SourceGraphic" in2="effect1_backgroundBlur_301_2143" result="shape"/>
</filter>
<filter id="filter1_b_301_2143" x="16" y="204" width="347" height="87" filterUnits="userSpaceOnUse" color-interpolation-filters="sRGB">
<feFlood flood-opacity="0" result="BackgroundImageFix"/>
<feGaussianBlur in="BackgroundImageFix" stdDeviation="10"/>
<feComposite in2="SourceAlpha" operator="in" result="effect1_backgroundBlur_301_2143"/>
<feBlend mode="normal" in="SourceGraphic" in2="effect1_backgroundBlur_301_2143" result="shape"/>
</filter>
<filter id="filter2_b_301_2143" x="58" y="99" width="242" height="87" filterUnits="userSpaceOnUse" color-interpolation-filters="sRGB">
<feFlood flood-opacity="0" result="BackgroundImageFix"/>
<feGaussianBlur in="BackgroundImageFix" stdDeviation="10"/>
<feComposite in2="SourceAlpha" operator="in" result="effect1_backgroundBlur_301_2143"/>
<feBlend mode="normal" in="SourceGraphic" in2="effect1_backgroundBlur_301_2143" result="shape"/>
</filter>
</defs>
</svg>
