<svg width="108" height="295" viewBox="0 0 108 295" fill="none" xmlns="http://www.w3.org/2000/svg">
<g filter="url(#filter0_b_301_2391)">
<path d="M0 145.6C0 136.601 0 132.101 2.2918 128.947C3.03195 127.928 3.92784 127.032 4.94658 126.292C8.10096 124 12.6006 124 21.6 124H85.4C94.3994 124 98.899 124 102.053 126.292C103.072 127.032 103.968 127.928 104.708 128.947C107 132.101 107 136.601 107 145.6V149.4C107 158.399 107 162.899 104.708 166.053C103.968 167.072 103.072 167.968 102.053 168.708C98.899 171 94.3994 171 85.4 171H21.6C12.6006 171 8.10096 171 4.94658 168.708C3.92784 167.968 3.03195 167.072 2.2918 166.053C0 162.899 0 158.399 0 149.4V145.6Z" fill="#D5D6DA" fill-opacity="0.6"/>
<path d="M11.548 140.274H16.012C16.624 140.274 17.176 140.31 17.668 140.382C18.172 140.454 18.622 140.622 19.018 140.886C19.366 141.114 19.66 141.438 19.9 141.858C20.14 142.278 20.26 142.812 20.26 143.46C20.26 144.108 20.11 144.684 19.81 145.188C19.522 145.692 19.072 146.064 18.46 146.304C19.276 146.448 19.888 146.796 20.296 147.348C20.704 147.888 20.908 148.59 20.908 149.454C20.872 150.246 20.704 150.864 20.404 151.308C20.104 151.752 19.72 152.1 19.252 152.352C18.784 152.604 18.256 152.778 17.668 152.874C17.092 152.958 16.51 153 15.922 153H11.548V140.274ZM13.114 141.696V145.854H15.562C15.898 145.854 16.246 145.83 16.606 145.782C16.966 145.734 17.29 145.632 17.578 145.476C17.914 145.308 18.184 145.08 18.388 144.792C18.604 144.492 18.718 144.084 18.73 143.568C18.73 143.16 18.658 142.836 18.514 142.596C18.37 142.344 18.172 142.152 17.92 142.02C17.668 141.888 17.38 141.804 17.056 141.768C16.732 141.72 16.39 141.696 16.03 141.696H13.114ZM15.868 151.578C16.252 151.578 16.636 151.56 17.02 151.524C17.416 151.488 17.788 151.398 18.136 151.254C18.496 151.098 18.784 150.876 19 150.588C19.216 150.288 19.324 149.886 19.324 149.382C19.324 148.95 19.24 148.596 19.072 148.32C18.916 148.044 18.7 147.828 18.424 147.672C18.16 147.516 17.854 147.408 17.506 147.348C17.158 147.288 16.804 147.258 16.444 147.258H13.114V151.578H15.868ZM24.4949 153H23.0009V143.514H24.5309V150.786C24.6149 150.618 24.7289 150.438 24.8729 150.246C25.0169 150.042 25.1309 149.886 25.2149 149.778L29.8049 143.514H31.3169V153H29.7869V145.728C29.6909 145.908 29.5829 146.082 29.4629 146.25C29.3549 146.406 29.2529 146.544 29.1569 146.664L24.4949 153ZM40.7256 143.514V144.864H37.4676V153H35.9376V144.864H32.6796V143.514H40.7256ZM48.3368 151.794C48.1328 152.07 47.8988 152.292 47.6348 152.46C47.3708 152.628 47.0948 152.76 46.8068 152.856C46.5308 152.952 46.2488 153.018 45.9608 153.054C45.6848 153.09 45.4088 153.108 45.1328 153.108C44.6888 153.108 44.2688 153.054 43.8728 152.946C43.4768 152.838 43.1168 152.664 42.7928 152.424C42.4808 152.184 42.2288 151.884 42.0368 151.524C41.8568 151.164 41.7668 150.756 41.7668 150.3C41.7668 149.76 41.8628 149.31 42.0548 148.95C42.2588 148.578 42.5288 148.278 42.8648 148.05C43.2008 147.822 43.5848 147.666 44.0168 147.582C44.4608 147.486 44.9288 147.438 45.4208 147.438H48.2108C48.2108 146.634 48.0368 145.998 47.6888 145.53C47.3408 145.05 46.7528 144.798 45.9248 144.774C45.4208 144.774 44.9768 144.858 44.5928 145.026C44.2088 145.194 43.9448 145.47 43.8008 145.854H42.1628C42.2468 145.422 42.4148 145.056 42.6668 144.756C42.9188 144.444 43.2188 144.192 43.5668 144C43.9148 143.796 44.2928 143.646 44.7008 143.55C45.1088 143.454 45.5168 143.406 45.9248 143.406C46.6328 143.406 47.2268 143.526 47.7068 143.766C48.1988 143.994 48.5948 144.3 48.8948 144.684C49.1948 145.056 49.4048 145.512 49.5248 146.052C49.6448 146.592 49.7048 147.198 49.7048 147.87V153H48.4268L48.3368 151.794ZM46.5368 148.716C46.2488 148.716 45.9128 148.722 45.5288 148.734C45.1568 148.734 44.7968 148.77 44.4488 148.842C44.1008 148.914 43.8188 149.064 43.6028 149.292C43.3988 149.52 43.2968 149.82 43.2968 150.192C43.2968 150.468 43.3508 150.702 43.4588 150.894C43.5668 151.086 43.7108 151.248 43.8908 151.38C44.0828 151.512 44.2988 151.608 44.5388 151.668C44.7788 151.728 45.0248 151.758 45.2768 151.758C46.1768 151.758 46.8848 151.542 47.4008 151.11C47.9288 150.666 48.1988 150.024 48.2108 149.184V148.716H46.5368ZM52.0751 143.514H54.1271L57.2051 148.266L60.2291 143.514H62.2451V153H60.7331V145.206L57.3851 150.57H56.9531L53.5871 145.206V153H52.0751V143.514ZM66.1551 153H64.6611V143.514H66.1911V150.786C66.2751 150.618 66.3891 150.438 66.5331 150.246C66.6771 150.042 66.7911 149.886 66.8751 149.778L71.4651 143.514H72.9771V153H71.4471V145.728C71.3511 145.908 71.2431 146.082 71.1231 146.25C71.0151 146.406 70.9131 146.544 70.8171 146.664L66.1551 153ZM75.3837 153V143.514H76.9137V147.672H81.6657V143.514H83.1957V153H81.6657V149.022H76.9137V153H75.3837ZM85.6142 143.514H87.1802V147.132H88.8902C89.4302 147.132 89.9222 147.174 90.3662 147.258C90.8222 147.33 91.2242 147.486 91.5722 147.726C91.8962 147.966 92.1422 148.272 92.3102 148.644C92.4902 149.004 92.5802 149.454 92.5802 149.994C92.5562 150.534 92.4542 150.984 92.2742 151.344C92.1062 151.692 91.8842 151.986 91.6082 152.226C91.2722 152.502 90.8642 152.7 90.3842 152.82C89.9042 152.94 89.4122 153 88.9082 153H85.6142V143.514ZM93.8942 153V143.514H95.4242V153H93.8942ZM87.6842 151.668C88.1402 151.668 88.5962 151.662 89.0522 151.65C89.5202 151.626 89.9222 151.53 90.2582 151.362C90.4862 151.266 90.6662 151.104 90.7982 150.876C90.9422 150.636 91.0202 150.36 91.0322 150.048C91.0322 149.676 90.9542 149.382 90.7982 149.166C90.6542 148.95 90.4622 148.794 90.2222 148.698C89.9942 148.59 89.7362 148.524 89.4482 148.5C89.1602 148.476 88.8782 148.464 88.6022 148.464H87.1802V151.668H87.6842Z" fill="#0F172A"/>
</g>
<g filter="url(#filter1_b_301_2391)">
<path d="M0 269.6C0 260.601 0 256.101 2.2918 252.947C3.03195 251.928 3.92784 251.032 4.94658 250.292C8.10096 248 12.6006 248 21.6 248H86.4C95.3994 248 99.899 248 103.053 250.292C104.072 251.032 104.968 251.928 105.708 252.947C108 256.101 108 260.601 108 269.6V273.4C108 282.399 108 286.899 105.708 290.053C104.968 291.072 104.072 291.968 103.053 292.708C99.899 295 95.3994 295 86.4 295H21.6C12.6006 295 8.10096 295 4.94658 292.708C3.92784 291.968 3.03195 291.072 2.2918 290.053C0 286.899 0 282.399 0 273.4V269.6Z" fill="#D5D6DA" fill-opacity="0.6"/>
<path d="M13.132 277H11.566V264.274H13.132V270.142H15.022L19.162 264.274H20.962L16.39 270.592L20.998 277H19.144L15.148 271.564H13.132V277ZM23.338 272.554C23.398 271.69 23.44 270.85 23.464 270.034C23.5 269.218 23.524 268.378 23.536 267.514H30.124V277H28.594V268.864H25.03L24.868 272.59C24.844 273.07 24.79 273.61 24.706 274.21C24.622 274.81 24.448 275.356 24.184 275.848C23.98 276.196 23.704 276.478 23.356 276.694C23.008 276.91 22.606 277.018 22.15 277.018H21.592V275.668C22.072 275.668 22.456 275.464 22.744 275.056C22.912 274.816 23.044 274.468 23.14 274.012C23.236 273.556 23.302 273.07 23.338 272.554ZM33.7163 272.824C33.7523 273.244 33.8363 273.634 33.9683 273.994C34.1123 274.342 34.3043 274.648 34.5443 274.912C34.7843 275.176 35.0783 275.386 35.4263 275.542C35.7863 275.686 36.2003 275.758 36.6683 275.758C36.8963 275.758 37.1303 275.74 37.3703 275.704C37.6223 275.656 37.8563 275.584 38.0723 275.488C38.2883 275.38 38.4803 275.242 38.6483 275.074C38.8163 274.906 38.9423 274.702 39.0263 274.462H40.5923C40.4843 274.918 40.2983 275.314 40.0343 275.65C39.7823 275.986 39.4763 276.262 39.1163 276.478C38.7683 276.694 38.3783 276.856 37.9463 276.964C37.5143 277.06 37.0763 277.108 36.6323 277.108C35.8763 277.108 35.2163 276.988 34.6523 276.748C34.1003 276.508 33.6383 276.178 33.2663 275.758C32.8943 275.326 32.6183 274.816 32.4383 274.228C32.2583 273.628 32.1683 272.974 32.1683 272.266C32.1683 271.558 32.2643 270.91 32.4563 270.322C32.6603 269.722 32.9483 269.206 33.3203 268.774C33.6923 268.342 34.1483 268.006 34.6883 267.766C35.2283 267.526 35.8703 267.406 36.6143 267.406C37.3703 267.406 38.0243 267.556 38.5763 267.856C39.1283 268.156 39.5723 268.552 39.9083 269.044C40.2443 269.524 40.4783 270.046 40.6103 270.61C40.7543 271.174 40.8143 271.696 40.7903 272.176C40.7903 272.284 40.7843 272.392 40.7723 272.5C40.7723 272.608 40.7663 272.716 40.7543 272.824H33.7163ZM39.2423 271.492C39.2183 270.688 38.9663 270.034 38.4863 269.53C38.0063 269.026 37.3643 268.774 36.5603 268.774C36.1163 268.774 35.7263 268.846 35.3903 268.99C35.0543 269.134 34.7723 269.332 34.5443 269.584C34.3163 269.836 34.1363 270.13 34.0043 270.466C33.8723 270.79 33.7883 271.132 33.7523 271.492H39.2423ZM49.8486 267.514V268.864H46.5906V277H45.0606V268.864H41.8026V267.514H49.8486ZM50.7998 267.514H52.3298V269.638C52.3298 270.058 52.3538 270.43 52.4018 270.754C52.4618 271.066 52.5698 271.33 52.7258 271.546C52.8818 271.762 53.1038 271.93 53.3918 272.05C53.6798 272.158 54.0578 272.212 54.5258 272.212C54.8858 272.212 55.2638 272.194 55.6598 272.158C56.0678 272.122 56.4458 272.068 56.7938 271.996V267.514H58.3238V277H56.7938V273.346C56.3378 273.43 55.8938 273.49 55.4618 273.526C55.0418 273.55 54.6638 273.562 54.3278 273.562C53.6558 273.562 53.0918 273.484 52.6358 273.328C52.1918 273.172 51.8318 272.938 51.5558 272.626C51.2798 272.302 51.0818 271.906 50.9618 271.438C50.8538 270.958 50.7998 270.394 50.7998 269.746V267.514ZM66.9872 275.794C66.7832 276.07 66.5492 276.292 66.2852 276.46C66.0212 276.628 65.7452 276.76 65.4572 276.856C65.1812 276.952 64.8992 277.018 64.6112 277.054C64.3352 277.09 64.0592 277.108 63.7832 277.108C63.3392 277.108 62.9192 277.054 62.5232 276.946C62.1272 276.838 61.7672 276.664 61.4432 276.424C61.1312 276.184 60.8792 275.884 60.6872 275.524C60.5072 275.164 60.4172 274.756 60.4172 274.3C60.4172 273.76 60.5132 273.31 60.7052 272.95C60.9092 272.578 61.1792 272.278 61.5152 272.05C61.8512 271.822 62.2352 271.666 62.6672 271.582C63.1112 271.486 63.5792 271.438 64.0712 271.438H66.8612C66.8612 270.634 66.6872 269.998 66.3392 269.53C65.9912 269.05 65.4032 268.798 64.5752 268.774C64.0712 268.774 63.6272 268.858 63.2432 269.026C62.8592 269.194 62.5952 269.47 62.4512 269.854H60.8132C60.8972 269.422 61.0652 269.056 61.3172 268.756C61.5692 268.444 61.8692 268.192 62.2172 268C62.5652 267.796 62.9432 267.646 63.3512 267.55C63.7592 267.454 64.1672 267.406 64.5752 267.406C65.2832 267.406 65.8772 267.526 66.3572 267.766C66.8492 267.994 67.2452 268.3 67.5452 268.684C67.8452 269.056 68.0552 269.512 68.1752 270.052C68.2952 270.592 68.3552 271.198 68.3552 271.87V277H67.0772L66.9872 275.794ZM65.1872 272.716C64.8992 272.716 64.5632 272.722 64.1792 272.734C63.8072 272.734 63.4472 272.77 63.0992 272.842C62.7512 272.914 62.4692 273.064 62.2532 273.292C62.0492 273.52 61.9472 273.82 61.9472 274.192C61.9472 274.468 62.0012 274.702 62.1092 274.894C62.2172 275.086 62.3612 275.248 62.5412 275.38C62.7332 275.512 62.9492 275.608 63.1892 275.668C63.4292 275.728 63.6752 275.758 63.9272 275.758C64.8272 275.758 65.5352 275.542 66.0512 275.11C66.5792 274.666 66.8492 274.024 66.8612 273.184V272.716H65.1872ZM77.7275 267.514V268.864H74.4695V277H72.9395V268.864H69.6815V267.514H77.7275ZM79.0927 277V267.514H80.6227V271.6H82.2787L85.0867 267.514H86.8327L83.6647 272.032L87.1027 277H85.3027L82.4587 272.932H80.6227V277H79.0927ZM94.4969 275.794C94.2929 276.07 94.0589 276.292 93.7949 276.46C93.5309 276.628 93.2549 276.76 92.9669 276.856C92.6909 276.952 92.4089 277.018 92.1209 277.054C91.8449 277.09 91.5689 277.108 91.2929 277.108C90.8489 277.108 90.4289 277.054 90.0329 276.946C89.6369 276.838 89.2769 276.664 88.9529 276.424C88.6409 276.184 88.3889 275.884 88.1969 275.524C88.0169 275.164 87.9269 274.756 87.9269 274.3C87.9269 273.76 88.0229 273.31 88.2149 272.95C88.4189 272.578 88.6889 272.278 89.0249 272.05C89.3609 271.822 89.7449 271.666 90.1769 271.582C90.6209 271.486 91.0889 271.438 91.5809 271.438H94.3709C94.3709 270.634 94.1969 269.998 93.8489 269.53C93.5009 269.05 92.9129 268.798 92.0849 268.774C91.5809 268.774 91.1369 268.858 90.7529 269.026C90.3689 269.194 90.1049 269.47 89.9609 269.854H88.3229C88.4069 269.422 88.5749 269.056 88.8269 268.756C89.0789 268.444 89.3789 268.192 89.7269 268C90.0749 267.796 90.4529 267.646 90.8609 267.55C91.2689 267.454 91.6769 267.406 92.0849 267.406C92.7929 267.406 93.3869 267.526 93.8669 267.766C94.3589 267.994 94.7549 268.3 95.0549 268.684C95.3549 269.056 95.5649 269.512 95.6849 270.052C95.8049 270.592 95.8649 271.198 95.8649 271.87V277H94.5869L94.4969 275.794ZM92.6969 272.716C92.4089 272.716 92.0729 272.722 91.6889 272.734C91.3169 272.734 90.9569 272.77 90.6089 272.842C90.2609 272.914 89.9789 273.064 89.7629 273.292C89.5589 273.52 89.4569 273.82 89.4569 274.192C89.4569 274.468 89.5109 274.702 89.6189 274.894C89.7269 275.086 89.8709 275.248 90.0509 275.38C90.2429 275.512 90.4589 275.608 90.6989 275.668C90.9389 275.728 91.1849 275.758 91.4369 275.758C92.3369 275.758 93.0449 275.542 93.5609 275.11C94.0889 274.666 94.3589 274.024 94.3709 273.184V272.716H92.6969Z" fill="#0F172A"/>
</g>
<g filter="url(#filter2_b_301_2391)">
<path d="M0 21.6C0 12.6006 0 8.10096 2.2918 4.94658C3.03195 3.92784 3.92784 3.03195 4.94658 2.2918C8.10096 0 12.6006 0 21.6 0H81.4C90.3994 0 94.899 0 98.0534 2.2918C99.0722 3.03195 99.968 3.92784 100.708 4.94658C103 8.10096 103 12.6006 103 21.6V25.4C103 34.3994 103 38.899 100.708 42.0534C99.968 43.0722 99.0722 43.968 98.0534 44.7082C94.899 47 90.3994 47 81.4 47H21.6C12.6006 47 8.10096 47 4.94658 44.7082C3.92784 43.968 3.03195 43.0722 2.2918 42.0534C0 38.899 0 34.3994 0 25.4V21.6Z" fill="#D5D6DA" fill-opacity="0.6"/>
<path d="M12.214 27.524C12.586 27.524 12.922 27.506 13.222 27.47C13.522 27.422 13.798 27.338 14.05 27.218C14.302 27.086 14.536 26.906 14.752 26.678C14.98 26.45 15.196 26.144 15.4 25.76L10.27 16.256H12.124L16.3 24.14L19.504 16.256H21.196C20.812 17.12 20.428 18.008 20.044 18.92C19.672 19.82 19.294 20.726 18.91 21.638C18.622 22.322 18.322 23.018 18.01 23.726C17.71 24.422 17.392 25.1 17.056 25.76C16.828 26.216 16.582 26.642 16.318 27.038C16.066 27.434 15.796 27.764 15.508 28.028C15.064 28.424 14.578 28.688 14.05 28.82C13.522 28.94 12.91 29 12.214 29V27.524ZM21.8408 29V19.514H28.3928V20.864H23.3708V29H21.8408ZM30.8966 24.554C30.9566 23.69 30.9986 22.85 31.0226 22.034C31.0586 21.218 31.0826 20.378 31.0946 19.514H37.6826V29H36.1526V20.864H32.5886L32.4266 24.59C32.4026 25.07 32.3486 25.61 32.2646 26.21C32.1806 26.81 32.0066 27.356 31.7426 27.848C31.5386 28.196 31.2626 28.478 30.9146 28.694C30.5666 28.91 30.1646 29.018 29.7086 29.018H29.1506V27.668C29.6306 27.668 30.0146 27.464 30.3026 27.056C30.4706 26.816 30.6026 26.468 30.6986 26.012C30.7946 25.556 30.8606 25.07 30.8966 24.554ZM41.2749 24.824C41.3109 25.244 41.3949 25.634 41.5269 25.994C41.6709 26.342 41.8629 26.648 42.1029 26.912C42.3429 27.176 42.6369 27.386 42.9849 27.542C43.3449 27.686 43.7589 27.758 44.2269 27.758C44.4549 27.758 44.6889 27.74 44.9289 27.704C45.1809 27.656 45.4149 27.584 45.6309 27.488C45.8469 27.38 46.0389 27.242 46.2069 27.074C46.3749 26.906 46.5009 26.702 46.5849 26.462H48.1509C48.0429 26.918 47.8569 27.314 47.5929 27.65C47.3409 27.986 47.0349 28.262 46.6749 28.478C46.3269 28.694 45.9369 28.856 45.5049 28.964C45.0729 29.06 44.6349 29.108 44.1909 29.108C43.4349 29.108 42.7749 28.988 42.2109 28.748C41.6589 28.508 41.1969 28.178 40.8249 27.758C40.4529 27.326 40.1769 26.816 39.9969 26.228C39.8169 25.628 39.7269 24.974 39.7269 24.266C39.7269 23.558 39.8229 22.91 40.0149 22.322C40.2189 21.722 40.5069 21.206 40.8789 20.774C41.2509 20.342 41.7069 20.006 42.2469 19.766C42.7869 19.526 43.4289 19.406 44.1729 19.406C44.9289 19.406 45.5829 19.556 46.1349 19.856C46.6869 20.156 47.1309 20.552 47.4669 21.044C47.8029 21.524 48.0369 22.046 48.1689 22.61C48.3129 23.174 48.3729 23.696 48.3489 24.176C48.3489 24.284 48.3429 24.392 48.3309 24.5C48.3309 24.608 48.3249 24.716 48.3129 24.824H41.2749ZM46.8009 23.492C46.7769 22.688 46.5249 22.034 46.0449 21.53C45.5649 21.026 44.9229 20.774 44.1189 20.774C43.6749 20.774 43.2849 20.846 42.9489 20.99C42.6129 21.134 42.3309 21.332 42.1029 21.584C41.8749 21.836 41.6949 22.13 41.5629 22.466C41.4309 22.79 41.3469 23.132 41.3109 23.492H46.8009ZM50.4052 19.514H54.0772C54.6892 19.514 55.2112 19.556 55.6432 19.64C56.0872 19.724 56.4592 19.874 56.7592 20.09C57.0232 20.27 57.2272 20.51 57.3712 20.81C57.5272 21.11 57.6052 21.464 57.6052 21.872C57.6052 22.82 57.1792 23.498 56.3272 23.906C56.9752 24.05 57.4432 24.332 57.7312 24.752C58.0192 25.172 58.1632 25.652 58.1632 26.192C58.1512 26.696 58.0672 27.11 57.9112 27.434C57.7552 27.746 57.5332 28.022 57.2452 28.262C56.9692 28.49 56.6272 28.67 56.2192 28.802C55.8112 28.934 55.3492 29 54.8332 29H50.4052V19.514ZM51.9712 20.864V23.564H53.2852C53.5852 23.564 53.8912 23.558 54.2032 23.546C54.5152 23.522 54.7912 23.468 55.0312 23.384C55.3312 23.288 55.5832 23.132 55.7872 22.916C55.9912 22.7 56.0992 22.442 56.1112 22.142C56.1112 21.794 56.0332 21.542 55.8772 21.386C55.7332 21.218 55.5532 21.098 55.3372 21.026C55.1212 20.942 54.8872 20.894 54.6352 20.882C54.3832 20.87 54.1492 20.864 53.9332 20.864H51.9712ZM51.9712 27.668H54.4732C54.7492 27.668 55.0132 27.65 55.2652 27.614C55.5292 27.578 55.7572 27.512 55.9492 27.416C56.1412 27.308 56.2972 27.164 56.4172 26.984C56.5372 26.804 56.6032 26.576 56.6152 26.3C56.6152 25.94 56.5312 25.658 56.3632 25.454C56.1952 25.238 55.9672 25.082 55.6792 24.986C55.4392 24.914 55.1692 24.872 54.8692 24.86C54.5692 24.848 54.2572 24.842 53.9332 24.842L51.9712 24.86V27.668ZM64.425 19.406C65.181 19.406 65.835 19.526 66.387 19.766C66.939 20.006 67.401 20.342 67.773 20.774C68.157 21.206 68.439 21.722 68.619 22.322C68.811 22.91 68.907 23.558 68.907 24.266C68.907 24.974 68.811 25.628 68.619 26.228C68.439 26.816 68.157 27.326 67.773 27.758C67.401 28.178 66.933 28.508 66.369 28.748C65.805 28.988 65.145 29.108 64.389 29.108C63.633 29.108 62.973 28.988 62.409 28.748C61.857 28.508 61.389 28.178 61.005 27.758C60.633 27.326 60.351 26.816 60.159 26.228C59.979 25.628 59.889 24.974 59.889 24.266C59.889 23.558 59.979 22.91 60.159 22.322C60.351 21.722 60.633 21.206 61.005 20.774C61.389 20.342 61.863 20.006 62.427 19.766C62.991 19.526 63.657 19.406 64.425 19.406ZM64.389 27.758C64.905 27.758 65.349 27.668 65.721 27.488C66.105 27.308 66.417 27.062 66.657 26.75C66.909 26.426 67.089 26.054 67.197 25.634C67.317 25.214 67.377 24.758 67.377 24.266C67.377 23.786 67.317 23.336 67.197 22.916C67.089 22.484 66.909 22.112 66.657 21.8C66.417 21.476 66.105 21.224 65.721 21.044C65.349 20.864 64.905 20.774 64.389 20.774C63.873 20.774 63.429 20.864 63.057 21.044C62.685 21.224 62.373 21.476 62.121 21.8C61.881 22.112 61.701 22.484 61.581 22.916C61.473 23.336 61.419 23.786 61.419 24.266C61.419 24.758 61.473 25.214 61.581 25.634C61.701 26.054 61.881 26.426 62.121 26.75C62.373 27.062 62.685 27.308 63.057 27.488C63.429 27.668 63.873 27.758 64.389 27.758ZM71.8231 21.602C71.8351 21.254 71.8411 20.906 71.8411 20.558C71.8411 20.21 71.8411 19.862 71.8411 19.514H78.5731V27.668H79.8151V31.916H78.3391V29H71.4091V31.916H69.9331V27.668C70.4131 27.668 70.7911 27.452 71.0671 27.02C71.2351 26.78 71.3671 26.438 71.4631 25.994C71.5591 25.538 71.6311 25.058 71.6791 24.554C71.7391 24.002 71.7751 23.456 71.7871 22.916C71.8111 22.364 71.8231 21.926 71.8231 21.602ZM77.0431 20.864H73.2991C73.2871 21.368 73.2751 21.932 73.2631 22.556C73.2511 23.18 73.2271 23.762 73.1911 24.302C73.1791 24.542 73.1611 24.806 73.1371 25.094C73.1131 25.37 73.0711 25.658 73.0111 25.958C72.9631 26.246 72.8851 26.54 72.7771 26.84C72.6811 27.14 72.5431 27.416 72.3631 27.668H77.0431V20.864ZM81.413 19.514H82.979V23.132H84.689C85.229 23.132 85.721 23.174 86.165 23.258C86.621 23.33 87.023 23.486 87.371 23.726C87.695 23.966 87.941 24.272 88.109 24.644C88.289 25.004 88.379 25.454 88.379 25.994C88.355 26.534 88.253 26.984 88.073 27.344C87.905 27.692 87.683 27.986 87.407 28.226C87.071 28.502 86.663 28.7 86.183 28.82C85.703 28.94 85.211 29 84.707 29H81.413V19.514ZM89.693 29V19.514H91.223V29H89.693ZM83.483 27.668C83.939 27.668 84.395 27.662 84.851 27.65C85.319 27.626 85.721 27.53 86.057 27.362C86.285 27.266 86.465 27.104 86.597 26.876C86.741 26.636 86.819 26.36 86.831 26.048C86.831 25.676 86.753 25.382 86.597 25.166C86.453 24.95 86.261 24.794 86.021 24.698C85.793 24.59 85.535 24.524 85.247 24.5C84.959 24.476 84.677 24.464 84.401 24.464H82.979V27.668H83.483Z" fill="#0F172A"/>
</g>
<g filter="url(#filter3_b_301_2391)">
<path d="M0 83.6C0 74.6006 0 70.101 2.2918 66.9466C3.03195 65.9278 3.92784 65.032 4.94658 64.2918C8.10096 62 12.6006 62 21.6 62H51.4C60.3994 62 64.899 62 68.0534 64.2918C69.0722 65.032 69.968 65.9278 70.7082 66.9466C73 70.101 73 74.6006 73 83.6V87.4C73 96.3994 73 100.899 70.7082 104.053C69.968 105.072 69.0722 105.968 68.0534 106.708C64.899 109 60.3994 109 51.4 109H21.6C12.6006 109 8.10096 109 4.94658 106.708C3.92784 105.968 3.03195 105.072 2.2918 104.053C0 100.899 0 96.3994 0 87.4V83.6Z" fill="#D5D6DA" fill-opacity="0.6"/>
<path d="M11.566 78.274H20.224V79.696H13.132V83.53H16.03C16.654 83.53 17.248 83.578 17.812 83.674C18.388 83.758 18.892 83.932 19.324 84.196C19.768 84.448 20.122 84.808 20.386 85.276C20.65 85.732 20.782 86.332 20.782 87.076C20.782 87.856 20.656 88.492 20.404 88.984C20.152 89.464 19.804 89.854 19.36 90.154C18.928 90.454 18.418 90.67 17.83 90.802C17.242 90.934 16.618 91 15.958 91H11.566V78.274ZM13.132 89.578H15.76C16.192 89.578 16.612 89.554 17.02 89.506C17.44 89.446 17.812 89.332 18.136 89.164C18.46 88.984 18.718 88.738 18.91 88.426C19.102 88.114 19.198 87.7 19.198 87.184C19.198 86.668 19.102 86.266 18.91 85.978C18.718 85.678 18.466 85.456 18.154 85.312C17.842 85.156 17.482 85.06 17.074 85.024C16.678 84.976 16.27 84.952 15.85 84.952H13.132V89.578ZM24.1713 86.824C24.2073 87.244 24.2913 87.634 24.4233 87.994C24.5673 88.342 24.7593 88.648 24.9993 88.912C25.2393 89.176 25.5333 89.386 25.8813 89.542C26.2413 89.686 26.6553 89.758 27.1233 89.758C27.3513 89.758 27.5853 89.74 27.8253 89.704C28.0773 89.656 28.3113 89.584 28.5273 89.488C28.7433 89.38 28.9353 89.242 29.1033 89.074C29.2713 88.906 29.3973 88.702 29.4813 88.462H31.0473C30.9393 88.918 30.7533 89.314 30.4893 89.65C30.2373 89.986 29.9313 90.262 29.5713 90.478C29.2233 90.694 28.8333 90.856 28.4013 90.964C27.9693 91.06 27.5313 91.108 27.0873 91.108C26.3313 91.108 25.6713 90.988 25.1073 90.748C24.5553 90.508 24.0933 90.178 23.7213 89.758C23.3493 89.326 23.0733 88.816 22.8933 88.228C22.7133 87.628 22.6233 86.974 22.6233 86.266C22.6233 85.558 22.7193 84.91 22.9113 84.322C23.1153 83.722 23.4033 83.206 23.7753 82.774C24.1473 82.342 24.6033 82.006 25.1433 81.766C25.6833 81.526 26.3253 81.406 27.0693 81.406C27.8253 81.406 28.4793 81.556 29.0313 81.856C29.5833 82.156 30.0273 82.552 30.3633 83.044C30.6993 83.524 30.9333 84.046 31.0653 84.61C31.2093 85.174 31.2693 85.696 31.2453 86.176C31.2453 86.284 31.2393 86.392 31.2273 86.5C31.2273 86.608 31.2213 86.716 31.2093 86.824H24.1713ZM29.6973 85.492C29.6733 84.688 29.4213 84.034 28.9413 83.53C28.4613 83.026 27.8193 82.774 27.0153 82.774C26.5713 82.774 26.1813 82.846 25.8453 82.99C25.5093 83.134 25.2273 83.332 24.9993 83.584C24.7713 83.836 24.5913 84.13 24.4593 84.466C24.3273 84.79 24.2433 85.132 24.2073 85.492H29.6973ZM34.0958 86.554C34.1558 85.69 34.1978 84.85 34.2218 84.034C34.2578 83.218 34.2818 82.378 34.2938 81.514H40.8818V91H39.3518V82.864H35.7878L35.6258 86.59C35.6018 87.07 35.5478 87.61 35.4638 88.21C35.3798 88.81 35.2058 89.356 34.9418 89.848C34.7378 90.196 34.4618 90.478 34.1138 90.694C33.7658 90.91 33.3638 91.018 32.9078 91.018H32.3498V89.668C32.8298 89.668 33.2138 89.464 33.5018 89.056C33.6698 88.816 33.8018 88.468 33.8978 88.012C33.9938 87.556 34.0598 87.07 34.0958 86.554ZM43.2861 91V81.514H44.8161V85.6H46.4721L49.2801 81.514H51.0261L47.8581 86.032L51.2961 91H49.4961L46.6521 86.932H44.8161V91H43.2861ZM54.1141 91H52.6201V81.514H54.1501V88.786C54.2341 88.618 54.3481 88.438 54.4921 88.246C54.6361 88.042 54.7501 87.886 54.8341 87.778L59.4241 81.514H60.9361V91H59.4061V83.728C59.3101 83.908 59.2021 84.082 59.0821 84.25C58.9741 84.406 58.8721 84.544 58.7761 84.664L54.1141 91Z" fill="#0F172A"/>
</g>
<g filter="url(#filter4_b_301_2391)">
<path d="M0 207.6C0 198.601 0 194.101 2.2918 190.947C3.03195 189.928 3.92784 189.032 4.94658 188.292C8.10096 186 12.6006 186 21.6 186H48.4C57.3994 186 61.899 186 65.0534 188.292C66.0722 189.032 66.968 189.928 67.7082 190.947C70 194.101 70 198.601 70 207.6V211.4C70 220.399 70 224.899 67.7082 228.053C66.968 229.072 66.0722 229.968 65.0534 230.708C61.899 233 57.3994 233 48.4 233H21.6C12.6006 233 8.10096 233 4.94658 230.708C3.92784 229.968 3.03195 229.072 2.2918 228.053C0 224.899 0 220.399 0 211.4V207.6Z" fill="#D5D6DA" fill-opacity="0.6"/>
<path d="M16.948 215V209.474H15.004L12.07 215H10.252L13.708 208.574L10.27 202.274H11.998L15.04 208.052H16.948V202.274H18.514V208.052H20.458L23.5 202.274H25.192L21.754 208.574L25.228 215H23.392L20.458 209.474H18.514V215H16.948ZM28.1863 215H26.6923V205.514H28.2223V212.786C28.3063 212.618 28.4203 212.438 28.5643 212.246C28.7083 212.042 28.8223 211.886 28.9063 211.778L33.4963 205.514H35.0083V215H33.4783V207.728C33.3823 207.908 33.2743 208.082 33.1543 208.25C33.0463 208.406 32.9443 208.544 32.8483 208.664L28.1863 215ZM38.945 218.42H37.415V205.514H38.873L38.945 206.972C39.269 206.456 39.707 206.072 40.259 205.82C40.823 205.556 41.429 205.418 42.077 205.406C42.809 205.406 43.427 205.532 43.931 205.784C44.447 206.024 44.873 206.366 45.209 206.81C45.557 207.242 45.815 207.758 45.983 208.358C46.151 208.946 46.235 209.582 46.235 210.266C46.235 210.962 46.151 211.604 45.983 212.192C45.815 212.78 45.557 213.29 45.209 213.722C44.861 214.154 44.423 214.496 43.895 214.748C43.367 214.988 42.737 215.108 42.005 215.108C41.285 215.108 40.673 214.994 40.169 214.766C39.665 214.538 39.257 214.238 38.945 213.866V218.42ZM41.879 213.758C42.395 213.758 42.827 213.668 43.175 213.488C43.535 213.296 43.823 213.044 44.039 212.732C44.267 212.408 44.429 212.036 44.525 211.616C44.633 211.196 44.693 210.746 44.705 210.266C44.705 209.786 44.651 209.336 44.543 208.916C44.447 208.484 44.285 208.112 44.057 207.8C43.829 207.488 43.529 207.242 43.157 207.062C42.797 206.87 42.359 206.774 41.843 206.774C41.231 206.774 40.703 206.942 40.259 207.278C39.815 207.602 39.479 208.016 39.251 208.52C39.119 208.796 39.029 209.084 38.981 209.384C38.933 209.672 38.909 209.972 38.909 210.284C38.909 210.644 38.933 210.98 38.981 211.292C39.029 211.592 39.119 211.88 39.251 212.156C39.479 212.612 39.809 212.996 40.241 213.308C40.685 213.608 41.231 213.758 41.879 213.758ZM48.208 205.514H49.774V209.132H51.484C52.024 209.132 52.516 209.174 52.96 209.258C53.416 209.33 53.818 209.486 54.166 209.726C54.49 209.966 54.736 210.272 54.904 210.644C55.084 211.004 55.174 211.454 55.174 211.994C55.15 212.534 55.048 212.984 54.868 213.344C54.7 213.692 54.478 213.986 54.202 214.226C53.866 214.502 53.458 214.7 52.978 214.82C52.498 214.94 52.006 215 51.502 215H48.208V205.514ZM56.488 215V205.514H58.018V215H56.488ZM50.278 213.668C50.734 213.668 51.19 213.662 51.646 213.65C52.114 213.626 52.516 213.53 52.852 213.362C53.08 213.266 53.26 213.104 53.392 212.876C53.536 212.636 53.614 212.36 53.626 212.048C53.626 211.676 53.548 211.382 53.392 211.166C53.248 210.95 53.056 210.794 52.816 210.698C52.588 210.59 52.33 210.524 52.042 210.5C51.754 210.476 51.472 210.464 51.196 210.464H49.774V213.668H50.278Z" fill="#0F172A"/>
</g>
<defs>
<filter id="filter0_b_301_2391" x="-20" y="104" width="147" height="87" filterUnits="userSpaceOnUse" color-interpolation-filters="sRGB">
<feFlood flood-opacity="0" result="BackgroundImageFix"/>
<feGaussianBlur in="BackgroundImageFix" stdDeviation="10"/>
<feComposite in2="SourceAlpha" operator="in" result="effect1_backgroundBlur_301_2391"/>
<feBlend mode="normal" in="SourceGraphic" in2="effect1_backgroundBlur_301_2391" result="shape"/>
</filter>
<filter id="filter1_b_301_2391" x="-20" y="228" width="148" height="87" filterUnits="userSpaceOnUse" color-interpolation-filters="sRGB">
<feFlood flood-opacity="0" result="BackgroundImageFix"/>
<feGaussianBlur in="BackgroundImageFix" stdDeviation="10"/>
<feComposite in2="SourceAlpha" operator="in" result="effect1_backgroundBlur_301_2391"/>
<feBlend mode="normal" in="SourceGraphic" in2="effect1_backgroundBlur_301_2391" result="shape"/>
</filter>
<filter id="filter2_b_301_2391" x="-20" y="-20" width="143" height="87" filterUnits="userSpaceOnUse" color-interpolation-filters="sRGB">
<feFlood flood-opacity="0" result="BackgroundImageFix"/>
<feGaussianBlur in="BackgroundImageFix" stdDeviation="10"/>
<feComposite in2="SourceAlpha" operator="in" result="effect1_backgroundBlur_301_2391"/>
<feBlend mode="normal" in="SourceGraphic" in2="effect1_backgroundBlur_301_2391" result="shape"/>
</filter>
<filter id="filter3_b_301_2391" x="-20" y="42" width="113" height="87" filterUnits="userSpaceOnUse" color-interpolation-filters="sRGB">
<feFlood flood-opacity="0" result="BackgroundImageFix"/>
<feGaussianBlur in="BackgroundImageFix" stdDeviation="10"/>
<feComposite in2="SourceAlpha" operator="in" result="effect1_backgroundBlur_301_2391"/>
<feBlend mode="normal" in="SourceGraphic" in2="effect1_backgroundBlur_301_2391" result="shape"/>
</filter>
<filter id="filter4_b_301_2391" x="-20" y="166" width="110" height="87" filterUnits="userSpaceOnUse" color-interpolation-filters="sRGB">
<feFlood flood-opacity="0" result="BackgroundImageFix"/>
<feGaussianBlur in="BackgroundImageFix" stdDeviation="10"/>
<feComposite in2="SourceAlpha" operator="in" result="effect1_backgroundBlur_301_2391"/>
<feBlend mode="normal" in="SourceGraphic" in2="effect1_backgroundBlur_301_2391" result="shape"/>
</filter>
</defs>
</svg>
