<svg width="149" height="50" viewBox="0 0 149 50" fill="none" xmlns="http://www.w3.org/2000/svg">
<path d="M36.6217 0H13.3609C5.98189 0 0 5.98397 0 13.3656V36.6344C0 44.016 5.98189 50 13.3609 50H36.6217C44.0008 50 49.9827 44.016 49.9827 36.6344V13.3656C49.9827 5.98397 44.0008 0 36.6217 0Z" fill="#B2FA63"/>
<path d="M41.4409 21.0122C41.1831 15.9058 37.3031 12.0567 32.4176 12.0567C30.2924 12.0646 28.2381 12.8226 26.6169 14.1972V10.5738C26.6169 10.1463 26.4471 9.7363 26.145 9.43402C25.8428 9.13173 25.4329 8.96191 25.0056 8.96191C24.5783 8.96191 24.1684 9.13173 23.8662 9.43402C23.5641 9.7363 23.3943 10.1463 23.3943 10.5738V14.1844C21.7722 12.8121 19.718 12.0563 17.5936 12.0502C12.6952 12.0502 8.81521 15.9187 8.5703 21.0058C8.14491 29.0135 12.1152 37.5886 17.4002 40.2063C18.5918 40.825 19.9292 41.1076 21.2691 41.0235C22.609 40.9395 23.9007 40.492 25.0056 39.7292C26.1092 40.4921 27.3999 40.9397 28.7388 41.0237C30.0777 41.1078 31.4142 40.8252 32.6045 40.2063C37.8702 37.5886 41.8341 29.0135 41.4409 21.0122ZM25.0056 22.9464C25.779 24.7453 26.4235 26.499 26.4235 27.5564C26.3994 27.9119 26.2413 28.2449 25.981 28.4882C25.7208 28.7315 25.3779 28.8668 25.0217 28.8668C24.6655 28.8668 24.3226 28.7315 24.0624 28.4882C23.8022 28.2449 23.644 27.9119 23.6199 27.5564C23.5876 26.557 24.2064 24.7904 25.0056 22.9464ZM31.1608 37.3178C29.4012 38.1947 27.7255 37.9239 26.0046 36.4925C25.7218 36.2511 25.3644 36.1145 24.9927 36.1057C24.6133 36.1027 24.2453 36.2353 23.955 36.4796C22.2599 37.911 20.5777 38.1818 18.7989 37.3049C14.7126 35.2804 11.4126 27.7369 11.7413 21.1863C11.9089 17.8272 14.4097 15.2933 17.542 15.2933C18.5553 15.2968 19.5503 15.5637 20.4293 16.0678C21.3084 16.5719 22.0414 17.2959 22.5564 18.1689C22.7433 18.4977 22.9431 18.8588 23.1558 19.2456C21.9183 21.7408 20.3328 25.3642 20.3328 27.5693C20.3775 28.7663 20.8843 29.8994 21.7466 30.7304C22.609 31.5615 23.7598 32.0258 24.9573 32.0258C26.1547 32.0258 27.3055 31.5615 28.1679 30.7304C29.0302 29.8994 29.537 28.7663 29.5817 27.5693C29.5817 25.2417 28.022 21.6827 26.7845 19.2263C26.9843 18.8523 27.1776 18.4913 27.3581 18.1753C27.8724 17.2998 28.6059 16.5735 29.4864 16.0682C30.3668 15.5628 31.3638 15.2957 32.3789 15.2933C35.5242 15.2933 38.0185 17.8272 38.1796 21.1863C38.547 27.724 35.247 35.2933 31.1608 37.3178Z" fill="#1C1C1E"/>
<path d="M92.6153 29.6584C92.7313 31.1091 92.3833 31.4637 90.9266 31.4637H90.3337C88.8835 31.4637 88.529 31.1091 88.4001 29.6584L87.1433 11.4959C87.0208 9.8067 86.7115 9.36827 85.764 9.36827C84.939 9.36827 84.5845 9.88407 84.3912 11.4959L82.2643 27.2986C81.8324 30.445 80.8528 31.4637 77.9073 31.4637C75.2325 31.4637 73.9757 30.4063 73.5439 27.2986L71.3847 11.5217C71.1849 9.90986 70.7918 9.39406 69.9668 9.39406C69.1418 9.39406 68.7486 9.94855 68.6326 11.5217L67.4274 29.6584C67.3887 31.0704 66.9504 31.4637 65.4938 31.4637H64.9395C63.4894 31.4637 63.1349 31.1091 63.2509 29.6584L64.5915 11.4572C64.9009 7.36956 66.525 5.65454 69.9732 5.65454C73.2345 5.65454 74.7298 7.30509 75.239 11.4572L77.0888 26.6281C77.2434 27.8467 77.3595 28.0465 77.9524 28.0465C78.5454 28.0465 78.5969 27.8467 78.7774 26.6281L80.6207 11.4572C81.1364 7.36956 82.7025 5.65454 85.8865 5.65454C89.3862 5.65454 90.9589 7.30509 91.2747 11.4572L92.6153 29.6584Z" fill="white"/>
<path d="M118.583 7.51144C118.467 6.05432 118.815 5.69971 120.272 5.69971H120.858C122.315 5.69971 122.669 6.05432 122.792 7.51144L124.049 25.6739C124.171 27.3631 124.481 27.7951 125.428 27.7951C126.253 27.7951 126.607 27.2858 126.801 25.6739L128.921 9.87121C129.36 6.72485 130.339 5.69971 133.285 5.69971C135.959 5.69971 137.216 6.76354 137.648 9.87121L139.807 25.6739C140.007 27.2858 140.4 27.7951 141.225 27.7951C142.05 27.7951 142.443 27.2471 142.559 25.6739L143.777 7.51144C143.816 6.093 144.248 5.69971 145.711 5.69971H146.304C147.754 5.69971 148.109 6.05432 147.993 7.51144L146.652 25.7126C146.343 29.8003 144.718 31.5153 141.27 31.5153C138.009 31.5153 136.514 29.8648 136.005 25.7126L134.155 10.5353C134 9.31673 133.884 9.1233 133.291 9.1233C132.698 9.1233 132.647 9.31673 132.466 10.5353L130.623 25.7126C130.107 29.8003 128.535 31.5153 125.357 31.5153C121.857 31.5153 120.285 29.8648 119.969 25.7126L118.583 7.51144Z" fill="white"/>
<path d="M110.946 19.9871H100.254V29.6583C100.254 31.1089 99.8994 31.4636 98.4492 31.4636H97.94C96.4834 31.4636 96.1289 31.1089 96.1289 29.6583V7.73693C96.1289 6.28625 96.4834 5.93164 97.94 5.93164H98.4556C99.9058 5.93164 100.26 6.28625 100.26 7.73693V16.0799H110.953V7.73693C110.953 6.28625 111.307 5.93164 112.758 5.93164H113.273C114.723 5.93164 115.078 6.28625 115.078 7.73693V29.6583C115.078 31.1089 114.723 31.4636 113.273 31.4636H112.758C111.307 31.4636 110.953 31.1089 110.953 29.6583L110.946 19.9871Z" fill="white"/>
<path d="M69.6449 42.076C69.6449 42.25 69.6449 42.2952 69.4451 42.2952H69.3742C69.2002 42.2952 69.1422 42.25 69.1293 42.076L68.807 37.2597C68.7684 36.8471 68.6137 36.7181 68.2914 36.7181C67.9691 36.7181 67.8789 36.86 67.8145 37.2597L67.1699 41.5279C67.0926 42.076 66.8928 42.2952 66.4223 42.2952C65.9518 42.2952 65.7778 42.076 65.6746 41.5279L65.0301 37.2597C64.9657 36.8471 64.8368 36.7181 64.5532 36.7181C64.2696 36.7181 64.0891 36.86 64.0569 37.2597L63.696 42.076C63.696 42.25 63.6315 42.2952 63.4575 42.2952H63.3866C63.2126 42.2952 63.1739 42.25 63.1803 42.076L63.5477 37.3951C63.6251 36.5505 63.928 36.2539 64.5596 36.2539C65.1913 36.2539 65.4555 36.5569 65.5844 37.3951L66.1709 41.4892C66.216 41.7923 66.2741 41.8632 66.4481 41.8632C66.6221 41.8632 66.6672 41.7729 66.7123 41.4892L67.286 37.3951C67.3955 36.5505 67.692 36.2539 68.285 36.2539C68.8779 36.2539 69.226 36.5505 69.2969 37.3951L69.6449 42.076Z" fill="white" fill-opacity="0.7"/>
<path d="M72.7307 41.3411C72.8467 41.7731 72.982 41.8891 73.3236 41.8891C73.6652 41.8891 73.8006 41.7537 73.9166 41.3411L74.748 38.04C74.7996 37.8659 74.8512 37.8208 75.0381 37.8208C75.225 37.8208 75.2637 37.8659 75.2121 38.04L74.1035 42.3276C73.7813 43.6171 73.1818 44.2102 72.3117 44.2231C72.1699 44.2231 72.1377 44.2231 72.099 44.0361V43.9652C72.0604 43.8105 72.099 43.7782 72.2151 43.7782C72.383 43.788 72.5509 43.7594 72.7061 43.6946C72.8613 43.6298 72.9998 43.5305 73.1109 43.4043C73.3568 43.0404 73.5439 42.6401 73.6652 42.218C73.5124 42.3057 73.3387 42.3502 73.1625 42.3469C72.6404 42.3469 72.4278 42.089 72.2151 41.3605L71.2547 38.04C71.2096 37.8659 71.2547 37.8208 71.4223 37.8208H71.461C71.6414 37.8208 71.6866 37.8208 71.751 38.04L72.7307 41.3411Z" fill="white" fill-opacity="0.7"/>
<path d="M80.7685 39.3874H77.6941V42.076C77.6941 42.2501 77.649 42.2952 77.475 42.2952H77.4105C77.2365 42.2952 77.1914 42.2501 77.1914 42.076V36.5377C77.1914 36.3636 77.2365 36.312 77.4105 36.312H77.475C77.649 36.312 77.6941 36.3636 77.6941 36.5377V38.8974H80.7685V36.5377C80.7685 36.3636 80.8136 36.312 80.9876 36.312H81.0521C81.2261 36.312 81.2712 36.3636 81.2712 36.5377V42.076C81.2712 42.2501 81.2261 42.2952 81.0521 42.2952H80.9876C80.8136 42.2952 80.7685 42.2501 80.7685 42.076V39.3874Z" fill="white" fill-opacity="0.7"/>
<path d="M87.079 40.0129C87.079 40.1999 87.0146 40.2321 86.8341 40.2321H83.8951V40.5545C83.8951 41.541 84.3334 41.9149 85.4097 41.9149C85.8624 41.9222 86.3132 41.8547 86.7439 41.715C86.8921 41.6699 86.9501 41.715 86.9501 41.8827V41.9085C86.9501 42.0567 86.9501 42.0825 86.7439 42.147C86.33 42.2922 85.8934 42.3621 85.4549 42.3533C84.0627 42.3533 83.4375 41.7924 83.4375 40.4642V39.5874C83.4375 38.3301 84.082 37.7047 85.3066 37.7047C85.5498 37.6711 85.7975 37.6932 86.0309 37.7695C86.2643 37.8459 86.4772 37.9743 86.6536 38.1452C86.83 38.316 86.9652 38.5248 87.049 38.7557C87.1327 38.9866 87.1628 39.2335 87.1371 39.4778C87.1048 39.6712 87.0919 39.8453 87.079 40.0129ZM83.8951 39.8001H86.6343V39.4326C86.6343 38.5751 86.1767 38.1431 85.2679 38.1431C84.3592 38.1431 83.8951 38.5751 83.8951 39.4326V39.8001Z" fill="white" fill-opacity="0.7"/>
<path d="M92.4111 40.9348C92.4111 41.9599 91.8439 42.379 90.5162 42.379C89.5494 42.379 88.8984 41.9277 88.8984 41.0315C88.8984 40.1353 89.485 39.742 90.774 39.742H91.9277V39.0973C91.9277 38.4525 91.5023 38.1559 90.6386 38.1559C90.2672 38.1513 89.8968 38.1946 89.5365 38.2849C89.3818 38.33 89.3367 38.2849 89.3367 38.1237V38.0399C89.3367 37.8787 89.3818 37.8336 89.5365 37.8013C89.8908 37.7297 90.2515 37.6952 90.6129 37.6982C91.8181 37.6982 92.424 38.1559 92.424 39.0779L92.4111 40.9348ZM91.9277 40.1224H90.7933C89.8008 40.1224 89.3883 40.3739 89.3883 41.0315C89.3883 41.6892 89.7621 41.9342 90.5162 41.9342C91.541 41.9342 91.9277 41.6892 91.9277 40.9155V40.1224Z" fill="white" fill-opacity="0.7"/>
<path d="M94.4336 36.1057C94.4336 35.9316 94.4787 35.8865 94.6527 35.8865H94.7043C94.8783 35.8865 94.9234 35.9316 94.9234 36.1057V41.1734C94.9234 41.6634 95.091 41.9019 95.4197 41.9019H95.5293C95.7033 41.9019 95.742 41.9019 95.742 42.0889C95.742 42.2501 95.7033 42.2952 95.5293 42.321C95.4803 42.3303 95.43 42.3303 95.381 42.321C94.7365 42.321 94.4336 41.9406 94.4336 41.1863V36.1057Z" fill="white" fill-opacity="0.7"/>
<path d="M96.9077 38.0399C96.9077 37.9239 96.9077 37.8852 97.0753 37.8594L97.6618 37.7949L97.752 36.7633C97.7843 36.6215 97.8165 36.5957 97.9389 36.5957H97.9841C98.1194 36.5957 98.1516 36.6408 98.1516 36.7633V37.7949H99.7952C99.9692 37.7949 100.008 37.8465 100.008 38.0012V38.0399C100.008 38.1947 99.9692 38.2527 99.7952 38.2527H98.1516V40.793C98.1216 41.0987 98.2016 41.405 98.3772 41.657C98.473 41.7474 98.5869 41.8165 98.7113 41.8599C98.8357 41.9032 98.9678 41.9198 99.0991 41.9084C99.3906 41.9111 99.6811 41.8742 99.9627 41.7988C100.098 41.7537 100.175 41.7988 100.175 41.9729V42.0116C100.175 42.1534 100.117 42.2179 99.9627 42.2695C99.6832 42.3443 99.3949 42.3812 99.1055 42.3791C98.1387 42.3791 97.6618 41.8439 97.6618 40.7865V38.2463H97.0753C97.0525 38.2495 97.0293 38.2474 97.0075 38.2401C96.9857 38.2328 96.9659 38.2205 96.9497 38.2043C96.9334 38.188 96.9212 38.1682 96.9139 38.1464C96.9066 38.1246 96.9045 38.1014 96.9077 38.0786V38.0399Z" fill="white" fill-opacity="0.7"/>
<path d="M101.984 36.1057C101.984 35.9316 102.029 35.8865 102.204 35.8865H102.249C102.423 35.8865 102.468 35.9316 102.468 36.1057V38.401C102.631 38.172 102.853 37.9913 103.111 37.8778C103.368 37.7643 103.652 37.7224 103.931 37.7562C105.097 37.7562 105.677 38.2914 105.677 39.3681V42.1276C105.677 42.3017 105.632 42.3468 105.458 42.3468H105.413C105.239 42.3468 105.194 42.3017 105.194 42.1276V39.3617C105.194 38.5235 104.814 38.1624 103.847 38.1624C102.88 38.1624 102.468 38.5428 102.468 39.3874V42.076C102.468 42.2501 102.423 42.2952 102.249 42.2952H102.204C102.029 42.2952 101.984 42.2501 101.984 42.076V36.1057Z" fill="white" fill-opacity="0.7"/>
<path d="M107.801 36.1057C107.801 35.9316 107.846 35.8865 108.02 35.8865H108.065C108.239 35.8865 108.284 35.9316 108.284 36.1057V41.1734C108.284 41.6634 108.452 41.9019 108.78 41.9019H108.89C109.07 41.9019 109.103 41.9019 109.103 42.0889C109.103 42.2501 109.07 42.2952 108.89 42.321C108.843 42.3299 108.795 42.3299 108.748 42.321C108.104 42.321 107.801 41.9406 107.801 41.1863V36.1057Z" fill="white" fill-opacity="0.7"/>
<path d="M111.99 41.3411C112.106 41.7731 112.241 41.8891 112.583 41.8891C112.924 41.8891 113.06 41.7537 113.176 41.3411L113.994 38.04C114.039 37.8659 114.097 37.8208 114.284 37.8208H114.316C114.503 37.8208 114.542 37.8659 114.49 38.04L113.382 42.3276C113.06 43.6171 112.46 44.2102 111.584 44.2231C111.448 44.2231 111.41 44.2231 111.377 44.0361V43.9652C111.339 43.8105 111.377 43.7782 111.493 43.7782C111.661 43.788 111.829 43.7594 111.984 43.6946C112.14 43.6298 112.278 43.5305 112.389 43.4043C112.635 43.0413 112.82 42.6406 112.937 42.218C112.787 42.3064 112.615 42.3511 112.441 42.3469C111.919 42.3469 111.706 42.089 111.493 41.3605L110.501 38.04C110.456 37.8659 110.501 37.8208 110.668 37.8208H110.701C110.881 37.8208 110.926 37.8208 110.991 38.04L111.99 41.3411Z" fill="white" fill-opacity="0.7"/>
<path d="M122.837 41.341C122.715 42.1018 122.438 42.3662 121.825 42.3662C121.213 42.3662 120.987 42.1083 120.846 41.341L120.13 37.2082C120.066 36.8278 120.001 36.7375 119.827 36.7375C119.653 36.7375 119.589 36.8278 119.524 37.2082L118.809 41.341C118.667 42.1083 118.409 42.3662 117.823 42.3662C117.236 42.3662 116.933 42.1018 116.811 41.341L116.012 36.5377C116.012 36.3636 116.012 36.312 116.192 36.312H116.257C116.437 36.312 116.489 36.3636 116.514 36.5377L117.32 41.3475C117.391 41.7795 117.539 41.9149 117.823 41.9149C118.106 41.9149 118.248 41.7795 118.319 41.3475L119.08 37.1889C119.189 36.5441 119.383 36.312 119.853 36.312C120.324 36.312 120.498 36.5377 120.62 37.1889L121.355 41.3475C121.426 41.7795 121.561 41.9149 121.851 41.9149C122.141 41.9149 122.283 41.7795 122.354 41.3475L123.166 36.5377C123.166 36.3636 123.25 36.312 123.424 36.312H123.488C123.662 36.312 123.694 36.3636 123.669 36.5377L122.837 41.341Z" fill="white" fill-opacity="0.7"/>
<path d="M128.988 40.0129C128.988 40.1999 128.923 40.2321 128.749 40.2321H125.81V40.5545C125.81 41.5409 126.248 41.9149 127.325 41.9149C127.777 41.9222 128.228 41.8547 128.659 41.715C128.807 41.6699 128.859 41.715 128.859 41.8827V41.9085C128.859 42.0567 128.859 42.0825 128.659 42.147C128.235 42.2956 127.787 42.3656 127.338 42.3533C125.946 42.3533 125.32 41.7924 125.32 40.4642V39.5874C125.32 38.3301 125.965 37.7047 127.189 37.7047C127.433 37.6711 127.68 37.6932 127.914 37.7695C128.147 37.8459 128.36 37.9743 128.536 38.1452C128.713 38.316 128.848 38.5248 128.932 38.7557C129.016 38.9866 129.046 39.2335 129.02 39.4778C129.02 39.6566 129.009 39.8353 128.988 40.0129ZM125.81 39.8001H128.549V39.4326C128.549 38.5751 128.092 38.1431 127.177 38.1431C126.261 38.1431 125.81 38.5751 125.81 39.4326V39.8001Z" fill="white" fill-opacity="0.7"/>
<path d="M131.376 36.022C131.417 36.0176 131.459 36.0217 131.499 36.0341C131.538 36.0465 131.575 36.0669 131.606 36.0942C131.638 36.1214 131.663 36.1548 131.681 36.1923C131.699 36.2298 131.709 36.2706 131.711 36.3121C131.716 36.3596 131.712 36.4077 131.697 36.4533C131.683 36.4989 131.659 36.5409 131.628 36.5768C131.596 36.6126 131.557 36.6415 131.514 36.6614C131.471 36.6813 131.423 36.6919 131.376 36.6925C131.285 36.6926 131.197 36.6568 131.132 36.5929C131.067 36.529 131.029 36.442 131.028 36.3508C131.026 36.3054 131.033 36.2601 131.05 36.2179C131.067 36.1758 131.093 36.1378 131.126 36.1066C131.159 36.0753 131.199 36.0516 131.242 36.037C131.285 36.0224 131.331 36.0173 131.376 36.022ZM131.131 38.0401C131.131 37.866 131.176 37.8208 131.35 37.8208H131.395C131.569 37.8208 131.621 37.866 131.621 38.0401V42.1084C131.621 42.2825 131.569 42.3276 131.395 42.3276H131.324C131.15 42.3276 131.105 42.2825 131.105 42.1084L131.131 38.0401Z" fill="white" fill-opacity="0.7"/>
<path d="M137.383 39.3875C137.383 40.4256 136.739 40.9543 135.546 40.9543C135.186 40.9416 134.825 40.9654 134.47 41.0252C134.397 41.0378 134.33 41.0769 134.284 41.1352C134.238 41.1935 134.214 41.2668 134.219 41.3411C134.219 41.4959 134.302 41.5861 134.476 41.6313C134.83 41.6888 135.188 41.7104 135.546 41.6957C136.063 41.6566 136.582 41.7475 137.054 41.9601C137.203 42.0645 137.322 42.2067 137.398 42.3722C137.474 42.5376 137.504 42.7203 137.486 42.9014C137.486 43.9201 136.971 44.3005 135.553 44.3005C134.135 44.3005 133.619 43.9137 133.619 43.011C133.607 42.8061 133.651 42.6017 133.746 42.4199C133.842 42.2381 133.985 42.0858 134.161 41.9794C134.04 41.9378 133.935 41.8582 133.863 41.7525C133.791 41.6467 133.755 41.5205 133.761 41.3927C133.761 41.0252 134.038 40.748 134.515 40.748C134.251 40.6485 134.028 40.4624 133.883 40.2201C133.738 39.9777 133.679 39.6934 133.716 39.4133V39.2844C133.716 38.2915 134.393 37.7306 135.572 37.7306C135.914 37.7204 136.253 37.7888 136.565 37.9304L137.1 37.4469C137.117 37.4277 137.137 37.4123 137.161 37.4017C137.184 37.3912 137.209 37.3857 137.235 37.3857C137.261 37.3857 137.286 37.3912 137.309 37.4017C137.333 37.4123 137.353 37.4277 137.37 37.4469L137.409 37.4855C137.429 37.5006 137.445 37.52 137.456 37.5424C137.468 37.5648 137.473 37.5895 137.473 37.6145C137.473 37.6395 137.468 37.6642 137.456 37.6866C137.445 37.709 137.429 37.7284 137.409 37.7434L136.951 38.1819C137.11 38.3145 137.234 38.4833 137.314 38.6741C137.393 38.8648 137.426 39.0719 137.409 39.2779L137.383 39.3875ZM134.579 42.089C134.42 42.1699 134.287 42.2964 134.199 42.4524C134.11 42.6084 134.07 42.7871 134.083 42.9659C134.083 43.6558 134.444 43.8556 135.546 43.8556C136.648 43.8556 136.996 43.6364 136.996 42.9272C137.013 42.7998 136.991 42.6704 136.934 42.5556C136.876 42.4407 136.786 42.3456 136.674 42.2825C136.311 42.163 135.928 42.1148 135.546 42.1406C135.224 42.1406 134.902 42.1213 134.579 42.089ZM136.9 39.2586C136.9 38.5107 136.449 38.1432 135.546 38.1432C134.644 38.1432 134.186 38.5107 134.186 39.2586V39.3875C134.186 40.1612 134.541 40.5094 135.546 40.5094C136.552 40.5094 136.9 40.1612 136.9 39.3875V39.2586Z" fill="white" fill-opacity="0.7"/>
<path d="M139.406 36.1057C139.406 35.9316 139.451 35.8865 139.625 35.8865H139.703C139.877 35.8865 139.922 35.9316 139.922 36.1057V38.401C140.085 38.1715 140.307 37.9903 140.565 37.8768C140.822 37.7633 141.106 37.7217 141.385 37.7562C142.552 37.7562 143.132 38.2914 143.132 39.3681V42.1276C143.132 42.3017 143.086 42.3468 142.906 42.3468H142.861C142.687 42.3468 142.642 42.3017 142.642 42.1276V39.3617C142.642 38.5235 142.268 38.1624 141.301 38.1624C140.334 38.1624 139.922 38.5428 139.922 39.3874V42.076C139.922 42.2501 139.877 42.2952 139.703 42.2952H139.651C139.477 42.2952 139.432 42.2501 139.432 42.076L139.406 36.1057Z" fill="white" fill-opacity="0.7"/>
<path d="M144.732 38.0399C144.732 37.9239 144.732 37.8852 144.9 37.8594L145.486 37.7949L145.583 36.7633C145.583 36.6215 145.647 36.5957 145.763 36.5957H145.808C145.95 36.5957 145.976 36.6408 145.976 36.7633V37.7949H147.619C147.8 37.7949 147.832 37.8465 147.832 38.0012V38.0399C147.832 38.1947 147.8 38.2527 147.619 38.2527H145.976V40.793C145.948 41.0995 146.03 41.4059 146.208 41.657C146.301 41.7491 146.414 41.8198 146.537 41.8644C146.661 41.9089 146.793 41.9261 146.923 41.9149C147.215 41.9176 147.505 41.8807 147.787 41.8052C147.929 41.7601 148 41.8052 148 41.9793V42.018C148 42.1599 147.942 42.2243 147.787 42.2759C147.507 42.3508 147.219 42.3876 146.93 42.3855C145.969 42.3855 145.486 41.8504 145.486 40.793V38.2463H144.9C144.877 38.2495 144.854 38.2474 144.832 38.2401C144.81 38.2328 144.79 38.2205 144.774 38.2043C144.758 38.188 144.745 38.1682 144.738 38.1464C144.731 38.1246 144.729 38.1014 144.732 38.0786V38.0399Z" fill="white" fill-opacity="0.7"/>
</svg>
