<svg width="47" height="28" viewBox="0 0 47 28" fill="none" xmlns="http://www.w3.org/2000/svg">
<g clip-path="url(#clip0_301_2197)">
<path fill-rule="evenodd" clip-rule="evenodd" d="M36.0452 27.5C30.174 27.5 25.4141 22.9225 25.4141 17.2747C25.4141 9.25925 31.1385 4.68651 37.3739 0.638742C38.0827 0.179556 38.9628 0.947259 38.5549 1.67072C37.5767 3.41061 36.904 5.20071 36.7386 7.07095C42.2866 7.41533 46.6749 11.8517 46.6749 17.2747C46.6749 22.9225 41.9151 27.5 36.0452 27.5Z" fill="#FF7833"/>
<path fill-rule="evenodd" clip-rule="evenodd" d="M10.6298 27.5C4.75986 27.5 0 22.9225 0 17.2747C0 9.25925 5.72327 4.68651 11.9587 0.638742C12.6673 0.179556 13.5474 0.947259 13.1409 1.67072C12.1625 3.41061 11.4888 5.20071 11.3247 7.07095C16.8714 7.41533 21.2608 11.8517 21.2608 17.2747C21.2608 22.9225 16.501 27.5 10.6298 27.5Z" fill="#FF7833"/>
</g>
<defs>
<clipPath id="clip0_301_2197">
<rect width="46.7308" height="27" fill="white" transform="translate(0 0.5)"/>
</clipPath>
</defs>
</svg>
