<svg width="148" height="50" viewBox="0 0 148 50" fill="none" xmlns="http://www.w3.org/2000/svg">
<path d="M36.6217 0H13.3609C5.98189 0 0 5.98397 0 13.3656V36.6344C0 44.016 5.98189 50 13.3609 50H36.6217C44.0008 50 49.9827 44.016 49.9827 36.6344V13.3656C49.9827 5.98397 44.0008 0 36.6217 0Z" fill="#B7F76D"/>
<path d="M41.4409 21.0122C41.1831 15.9058 37.3031 12.0567 32.4176 12.0567C30.2924 12.0646 28.2381 12.8226 26.6169 14.1972V10.5738C26.6169 10.1463 26.4471 9.7363 26.145 9.43402C25.8428 9.13173 25.4329 8.96191 25.0056 8.96191C24.5783 8.96191 24.1684 9.13173 23.8662 9.43402C23.5641 9.7363 23.3943 10.1463 23.3943 10.5738V14.1844C21.7722 12.8121 19.718 12.0563 17.5936 12.0502C12.6952 12.0502 8.81521 15.9187 8.5703 21.0058C8.14491 29.0135 12.1152 37.5886 17.4002 40.2063C18.5918 40.825 19.9292 41.1076 21.2691 41.0235C22.609 40.9395 23.9007 40.492 25.0056 39.7292C26.1092 40.4921 27.3999 40.9397 28.7388 41.0237C30.0777 41.1078 31.4142 40.8252 32.6045 40.2063C37.8702 37.5886 41.8341 29.0135 41.4409 21.0122ZM25.0056 22.9464C25.779 24.7453 26.4235 26.499 26.4235 27.5564C26.3994 27.9119 26.2413 28.2449 25.981 28.4882C25.7208 28.7315 25.3779 28.8668 25.0217 28.8668C24.6655 28.8668 24.3226 28.7315 24.0624 28.4882C23.8022 28.2449 23.644 27.9119 23.6199 27.5564C23.5876 26.557 24.2064 24.7904 25.0056 22.9464ZM31.1608 37.3178C29.4012 38.1947 27.7255 37.9239 26.0046 36.4925C25.7218 36.2511 25.3644 36.1145 24.9927 36.1057C24.6133 36.1027 24.2453 36.2353 23.955 36.4796C22.2599 37.911 20.5777 38.1818 18.7989 37.3049C14.7126 35.2804 11.4126 27.7369 11.7413 21.1863C11.9089 17.8272 14.4097 15.2933 17.542 15.2933C18.5553 15.2968 19.5503 15.5637 20.4293 16.0678C21.3084 16.5719 22.0414 17.2959 22.5564 18.1689C22.7433 18.4977 22.9431 18.8588 23.1558 19.2456C21.9183 21.7408 20.3328 25.3642 20.3328 27.5693C20.3775 28.7663 20.8843 29.8994 21.7466 30.7304C22.609 31.5615 23.7598 32.0258 24.9573 32.0258C26.1547 32.0258 27.3055 31.5615 28.1679 30.7304C29.0302 29.8994 29.537 28.7663 29.5817 27.5693C29.5817 25.2417 28.022 21.6827 26.7845 19.2263C26.9843 18.8523 27.1776 18.4913 27.3581 18.1753C27.8724 17.2998 28.6059 16.5735 29.4864 16.0682C30.3668 15.5628 31.3638 15.2957 32.3789 15.2933C35.5242 15.2933 38.0185 17.8272 38.1796 21.1863C38.547 27.724 35.247 35.2933 31.1608 37.3178Z" fill="#0F172A"/>
<path d="M92.4356 29.6584C92.5516 31.1091 92.2036 31.4637 90.747 31.4637H90.154C88.7038 31.4637 88.3493 31.1091 88.2204 29.6584L86.9636 11.4959C86.8411 9.8067 86.5318 9.36827 85.5843 9.36827C84.7593 9.36827 84.4049 9.88407 84.2115 11.4959L82.0846 27.2986C81.6527 30.445 80.6731 31.4637 77.7276 31.4637C75.0528 31.4637 73.796 30.4063 73.3642 27.2986L71.2051 11.5217C71.0053 9.90986 70.6121 9.39406 69.7871 9.39406C68.9621 9.39406 68.569 9.94855 68.4529 11.5217L67.2477 29.6584C67.209 31.0704 66.7707 31.4637 65.3141 31.4637H64.7598C63.3097 31.4637 62.9552 31.1091 63.0712 29.6584L64.4118 11.4572C64.7212 7.36956 66.3454 5.65454 69.7935 5.65454C73.0548 5.65454 74.5501 7.30509 75.0593 11.4572L76.9091 26.6281C77.0638 27.8467 77.1798 28.0465 77.7727 28.0465C78.3657 28.0465 78.4172 27.8467 78.5977 26.6281L80.441 11.4572C80.9567 7.36956 82.5229 5.65454 85.7068 5.65454C89.2065 5.65454 90.7792 7.30509 91.095 11.4572L92.4356 29.6584Z" fill="#0F172A"/>
<path d="M118.403 7.51144C118.287 6.05432 118.635 5.69971 120.092 5.69971H120.679C122.135 5.69971 122.49 6.05432 122.612 7.51144L123.869 25.6739C123.991 27.3631 124.301 27.7951 125.248 27.7951C126.073 27.7951 126.428 27.2858 126.621 25.6739L128.742 9.87121C129.18 6.72485 130.16 5.69971 133.105 5.69971C135.78 5.69971 137.037 6.76354 137.468 9.87121L139.628 25.6739C139.827 27.2858 140.221 27.7951 141.045 27.7951C141.87 27.7951 142.264 27.2471 142.38 25.6739L143.598 7.51144C143.636 6.093 144.068 5.69971 145.531 5.69971H146.124C147.574 5.69971 147.929 6.05432 147.813 7.51144L146.472 25.7126C146.163 29.8003 144.539 31.5153 141.091 31.5153C137.829 31.5153 136.334 29.8648 135.825 25.7126L133.975 10.5353C133.82 9.31673 133.704 9.1233 133.111 9.1233C132.518 9.1233 132.467 9.31673 132.286 10.5353L130.443 25.7126C129.927 29.8003 128.355 31.5153 125.177 31.5153C121.678 31.5153 120.105 29.8648 119.789 25.7126L118.403 7.51144Z" fill="#0F172A"/>
<path d="M110.767 19.9871H100.074V29.6583C100.074 31.1089 99.7197 31.4636 98.2695 31.4636H97.7603C96.3037 31.4636 95.9492 31.1089 95.9492 29.6583V7.73693C95.9492 6.28625 96.3037 5.93164 97.7603 5.93164H98.2759C99.7261 5.93164 100.081 6.28625 100.081 7.73693V16.0799H110.773V7.73693C110.773 6.28625 111.128 5.93164 112.578 5.93164H113.093C114.544 5.93164 114.898 6.28625 114.898 7.73693V29.6583C114.898 31.1089 114.544 31.4636 113.093 31.4636H112.578C111.128 31.4636 110.773 31.1089 110.773 29.6583L110.767 19.9871Z" fill="#0F172A"/>
<g opacity="0.7">
<path d="M69.4652 42.076C69.4652 42.25 69.4652 42.2952 69.2654 42.2952H69.1945C69.0205 42.2952 68.9625 42.25 68.9496 42.076L68.6273 37.2597C68.5887 36.8471 68.434 36.7181 68.1117 36.7181C67.7895 36.7181 67.6992 36.86 67.6348 37.2597L66.9903 41.5279C66.9129 42.076 66.7131 42.2952 66.2426 42.2952C65.7721 42.2952 65.5981 42.076 65.495 41.5279L64.8504 37.2597C64.786 36.8471 64.6571 36.7181 64.3735 36.7181C64.0899 36.7181 63.9094 36.86 63.8772 37.2597L63.5163 42.076C63.5163 42.25 63.4518 42.2952 63.2778 42.2952H63.2069C63.0329 42.2952 62.9942 42.25 63.0007 42.076L63.368 37.3951C63.4454 36.5505 63.7483 36.2539 64.3799 36.2539C65.0116 36.2539 65.2758 36.5569 65.4047 37.3951L65.9912 41.4892C66.0364 41.7923 66.0944 41.8632 66.2684 41.8632C66.4424 41.8632 66.4875 41.7729 66.5326 41.4892L67.1063 37.3951C67.2158 36.5505 67.5123 36.2539 68.1053 36.2539C68.6982 36.2539 69.0463 36.5505 69.1172 37.3951L69.4652 42.076Z" fill="#0F172A"/>
<path d="M72.551 41.3411C72.667 41.7731 72.8024 41.8891 73.144 41.8891C73.4856 41.8891 73.6209 41.7537 73.7369 41.3411L74.5683 38.04C74.6199 37.8659 74.6715 37.8208 74.8584 37.8208C75.0453 37.8208 75.084 37.8659 75.0324 38.04L73.9238 42.3276C73.6016 43.6171 73.0022 44.2102 72.1321 44.2231C71.9903 44.2231 71.958 44.2231 71.9194 44.0361V43.9652C71.8807 43.8105 71.9194 43.7782 72.0354 43.7782C72.2033 43.788 72.3712 43.7594 72.5264 43.6946C72.6816 43.6298 72.8201 43.5305 72.9313 43.4043C73.1771 43.0404 73.3642 42.6401 73.4855 42.218C73.3327 42.3057 73.159 42.3502 72.9828 42.3469C72.4608 42.3469 72.2481 42.089 72.0354 41.3605L71.075 38.04C71.0299 37.8659 71.075 37.8208 71.2426 37.8208H71.2813C71.4618 37.8208 71.5069 37.8208 71.5713 38.04L72.551 41.3411Z" fill="#0F172A"/>
<path d="M80.5888 39.3874H77.5144V42.076C77.5144 42.2501 77.4693 42.2952 77.2953 42.2952H77.2309C77.0568 42.2952 77.0117 42.2501 77.0117 42.076V36.5377C77.0117 36.3636 77.0568 36.312 77.2309 36.312H77.2953C77.4693 36.312 77.5144 36.3636 77.5144 36.5377V38.8974H80.5888V36.5377C80.5888 36.3636 80.6339 36.312 80.808 36.312H80.8724C81.0464 36.312 81.0915 36.3636 81.0915 36.5377V42.076C81.0915 42.2501 81.0464 42.2952 80.8724 42.2952H80.808C80.6339 42.2952 80.5888 42.2501 80.5888 42.076V39.3874Z" fill="#0F172A"/>
<path d="M86.8994 40.0129C86.8994 40.1999 86.8349 40.2321 86.6544 40.2321H83.7154V40.5545C83.7154 41.541 84.1537 41.9149 85.2301 41.9149C85.6827 41.9222 86.1335 41.8547 86.5642 41.715C86.7125 41.6699 86.7705 41.715 86.7705 41.8827V41.9085C86.7705 42.0567 86.7705 42.0825 86.5642 42.147C86.1503 42.2922 85.7137 42.3621 85.2752 42.3533C83.883 42.3533 83.2578 41.7924 83.2578 40.4642V39.5874C83.2578 38.3301 83.9023 37.7047 85.1269 37.7047C85.3701 37.6711 85.6178 37.6932 85.8512 37.7695C86.0846 37.8459 86.2975 37.9743 86.4739 38.1452C86.6503 38.316 86.7855 38.5248 86.8693 38.7557C86.953 38.9866 86.9832 39.2335 86.9574 39.4778C86.9251 39.6712 86.9123 39.8453 86.8994 40.0129ZM83.7154 39.8001H86.4546V39.4326C86.4546 38.5751 85.997 38.1431 85.0883 38.1431C84.1795 38.1431 83.7154 38.5751 83.7154 39.4326V39.8001Z" fill="#0F172A"/>
<path d="M92.2314 40.9348C92.2314 41.9599 91.6642 42.379 90.3365 42.379C89.3697 42.379 88.7188 41.9277 88.7188 41.0315C88.7188 40.1353 89.3053 39.742 90.5943 39.742H91.748V39.0973C91.748 38.4525 91.3226 38.1559 90.459 38.1559C90.0876 38.1513 89.7171 38.1946 89.3568 38.2849C89.2021 38.33 89.157 38.2849 89.157 38.1237V38.0399C89.157 37.8787 89.2021 37.8336 89.3568 37.8013C89.7111 37.7297 90.0718 37.6952 90.4332 37.6982C91.6384 37.6982 92.2443 38.1559 92.2443 39.0779L92.2314 40.9348ZM91.748 40.1224H90.6136C89.6211 40.1224 89.2086 40.3739 89.2086 41.0315C89.2086 41.6892 89.5824 41.9342 90.3365 41.9342C91.3613 41.9342 91.748 41.6892 91.748 40.9155V40.1224Z" fill="#0F172A"/>
<path d="M94.2539 36.1057C94.2539 35.9316 94.299 35.8865 94.4731 35.8865H94.5246C94.6986 35.8865 94.7437 35.9316 94.7437 36.1057V41.1734C94.7437 41.6634 94.9113 41.9019 95.24 41.9019H95.3496C95.5236 41.9019 95.5623 41.9019 95.5623 42.0889C95.5623 42.2501 95.5236 42.2952 95.3496 42.321C95.3006 42.3303 95.2503 42.3303 95.2014 42.321C94.5568 42.321 94.2539 41.9406 94.2539 41.1863V36.1057Z" fill="#0F172A"/>
<path d="M96.728 38.0399C96.728 37.9239 96.728 37.8852 96.8956 37.8594L97.4821 37.7949L97.5724 36.7633C97.6046 36.6215 97.6368 36.5957 97.7593 36.5957H97.8044C97.9397 36.5957 97.972 36.6408 97.972 36.7633V37.7949H99.6155C99.7895 37.7949 99.8282 37.8465 99.8282 38.0012V38.0399C99.8282 38.1947 99.7895 38.2527 99.6155 38.2527H97.972V40.793C97.9419 41.0987 98.0219 41.405 98.1975 41.657C98.2933 41.7474 98.4072 41.8165 98.5316 41.8599C98.656 41.9032 98.7882 41.9198 98.9194 41.9084C99.2109 41.9111 99.5015 41.8742 99.7831 41.7988C99.9184 41.7537 99.9957 41.7988 99.9957 41.9729V42.0116C99.9957 42.1534 99.9377 42.2179 99.7831 42.2695C99.5035 42.3443 99.2152 42.3812 98.9258 42.3791C97.9591 42.3791 97.4821 41.8439 97.4821 40.7865V38.2463H96.8956C96.8728 38.2495 96.8496 38.2474 96.8278 38.2401C96.806 38.2328 96.7862 38.2205 96.77 38.2043C96.7537 38.188 96.7415 38.1682 96.7342 38.1464C96.7269 38.1246 96.7248 38.1014 96.728 38.0786V38.0399Z" fill="#0F172A"/>
<path d="M101.805 36.1057C101.805 35.9316 101.85 35.8865 102.024 35.8865H102.069C102.243 35.8865 102.288 35.9316 102.288 36.1057V38.401C102.452 38.172 102.674 37.9913 102.931 37.8778C103.189 37.7643 103.472 37.7224 103.751 37.7562C104.918 37.7562 105.498 38.2914 105.498 39.3681V42.1276C105.498 42.3017 105.453 42.3468 105.279 42.3468H105.234C105.06 42.3468 105.014 42.3017 105.014 42.1276V39.3617C105.014 38.5235 104.634 38.1624 103.667 38.1624C102.701 38.1624 102.288 38.5428 102.288 39.3874V42.076C102.288 42.2501 102.243 42.2952 102.069 42.2952H102.024C101.85 42.2952 101.805 42.2501 101.805 42.076V36.1057Z" fill="#0F172A"/>
<path d="M107.621 36.1057C107.621 35.9316 107.666 35.8865 107.84 35.8865H107.885C108.059 35.8865 108.104 35.9316 108.104 36.1057V41.1734C108.104 41.6634 108.272 41.9019 108.601 41.9019H108.71C108.891 41.9019 108.923 41.9019 108.923 42.0889C108.923 42.2501 108.891 42.2952 108.71 42.321C108.663 42.3299 108.615 42.3299 108.569 42.321C107.924 42.321 107.621 41.9406 107.621 41.1863V36.1057Z" fill="#0F172A"/>
<path d="M111.81 41.3411C111.926 41.7731 112.061 41.8891 112.403 41.8891C112.745 41.8891 112.88 41.7537 112.996 41.3411L113.814 38.04C113.86 37.8659 113.918 37.8208 114.104 37.8208H114.137C114.324 37.8208 114.362 37.8659 114.311 38.04L113.202 42.3276C112.88 43.6171 112.28 44.2102 111.404 44.2231C111.269 44.2231 111.23 44.2231 111.198 44.0361V43.9652C111.159 43.8105 111.198 43.7782 111.314 43.7782C111.482 43.788 111.65 43.7594 111.805 43.6946C111.96 43.6298 112.098 43.5305 112.21 43.4043C112.456 43.0413 112.641 42.6406 112.757 42.218C112.607 42.3064 112.435 42.3511 112.261 42.3469C111.739 42.3469 111.526 42.089 111.314 41.3605L110.321 38.04C110.276 37.8659 110.321 37.8208 110.489 37.8208H110.521C110.701 37.8208 110.747 37.8208 110.811 38.04L111.81 41.3411Z" fill="#0F172A"/>
<path d="M122.658 41.341C122.535 42.1018 122.258 42.3662 121.646 42.3662C121.033 42.3662 120.808 42.1083 120.666 41.341L119.951 37.2082C119.886 36.8278 119.822 36.7375 119.648 36.7375C119.474 36.7375 119.409 36.8278 119.345 37.2082L118.629 41.341C118.487 42.1083 118.23 42.3662 117.643 42.3662C117.057 42.3662 116.754 42.1018 116.631 41.341L115.832 36.5377C115.832 36.3636 115.832 36.312 116.012 36.312H116.077C116.257 36.312 116.309 36.3636 116.335 36.5377L117.14 41.3475C117.211 41.7795 117.36 41.9149 117.643 41.9149C117.927 41.9149 118.069 41.7795 118.139 41.3475L118.9 37.1889C119.01 36.5441 119.203 36.312 119.673 36.312C120.144 36.312 120.318 36.5377 120.44 37.1889L121.175 41.3475C121.246 41.7795 121.381 41.9149 121.671 41.9149C121.961 41.9149 122.103 41.7795 122.174 41.3475L122.986 36.5377C122.986 36.3636 123.07 36.312 123.244 36.312H123.308C123.482 36.312 123.515 36.3636 123.489 36.5377L122.658 41.341Z" fill="#0F172A"/>
<path d="M128.808 40.0129C128.808 40.1999 128.744 40.2321 128.569 40.2321H125.63V40.5545C125.63 41.5409 126.069 41.9149 127.145 41.9149C127.598 41.9222 128.049 41.8547 128.479 41.715C128.627 41.6699 128.679 41.715 128.679 41.8827V41.9085C128.679 42.0567 128.679 42.0825 128.479 42.147C128.055 42.2956 127.607 42.3656 127.158 42.3533C125.766 42.3533 125.141 41.7924 125.141 40.4642V39.5874C125.141 38.3301 125.785 37.7047 127.01 37.7047C127.253 37.6711 127.501 37.6932 127.734 37.7695C127.967 37.8459 128.18 37.9743 128.357 38.1452C128.533 38.316 128.668 38.5248 128.752 38.7557C128.836 38.9866 128.866 39.2335 128.84 39.4778C128.84 39.6566 128.829 39.8353 128.808 40.0129ZM125.63 39.8001H128.37V39.4326C128.37 38.5751 127.912 38.1431 126.997 38.1431C126.082 38.1431 125.63 38.5751 125.63 39.4326V39.8001Z" fill="#0F172A"/>
<path d="M131.196 36.022C131.237 36.0176 131.279 36.0217 131.319 36.0341C131.359 36.0465 131.395 36.0669 131.427 36.0942C131.458 36.1214 131.484 36.1548 131.502 36.1923C131.52 36.2298 131.53 36.2706 131.531 36.3121C131.537 36.3596 131.532 36.4077 131.518 36.4533C131.503 36.4989 131.48 36.5409 131.448 36.5768C131.416 36.6126 131.378 36.6415 131.334 36.6614C131.291 36.6813 131.244 36.6919 131.196 36.6925C131.105 36.6926 131.017 36.6568 130.952 36.5929C130.887 36.529 130.85 36.442 130.848 36.3508C130.846 36.3054 130.854 36.2601 130.871 36.2179C130.888 36.1758 130.914 36.1378 130.947 36.1066C130.98 36.0753 131.019 36.0516 131.062 36.037C131.105 36.0224 131.151 36.0173 131.196 36.022ZM130.951 38.0401C130.951 37.866 130.996 37.8208 131.17 37.8208H131.215C131.389 37.8208 131.441 37.866 131.441 38.0401V42.1084C131.441 42.2825 131.389 42.3276 131.215 42.3276H131.144C130.97 42.3276 130.925 42.2825 130.925 42.1084L130.951 38.0401Z" fill="#0F172A"/>
<path d="M137.203 39.3875C137.203 40.4256 136.559 40.9543 135.367 40.9543C135.006 40.9416 134.646 40.9654 134.29 41.0252C134.217 41.0378 134.151 41.0769 134.104 41.1352C134.058 41.1935 134.035 41.2668 134.039 41.3411C134.039 41.4959 134.123 41.5861 134.297 41.6313C134.65 41.6888 135.009 41.7104 135.367 41.6957C135.883 41.6566 136.402 41.7475 136.875 41.9601C137.024 42.0645 137.142 42.2067 137.218 42.3722C137.294 42.5376 137.325 42.7203 137.307 42.9014C137.307 43.9201 136.791 44.3005 135.373 44.3005C133.955 44.3005 133.439 43.9137 133.439 43.011C133.427 42.8061 133.471 42.6017 133.567 42.4199C133.662 42.2381 133.805 42.0858 133.981 41.9794C133.86 41.9378 133.756 41.8582 133.684 41.7525C133.612 41.6467 133.576 41.5205 133.581 41.3927C133.581 41.0252 133.858 40.748 134.335 40.748C134.071 40.6485 133.848 40.4624 133.703 40.2201C133.558 39.9777 133.499 39.6934 133.536 39.4133V39.2844C133.536 38.2915 134.213 37.7306 135.392 37.7306C135.734 37.7204 136.074 37.7888 136.385 37.9304L136.92 37.4469C136.937 37.4277 136.958 37.4123 136.981 37.4017C137.004 37.3912 137.03 37.3857 137.055 37.3857C137.081 37.3857 137.106 37.3912 137.129 37.4017C137.153 37.4123 137.174 37.4277 137.191 37.4469L137.229 37.4855C137.249 37.5006 137.266 37.52 137.277 37.5424C137.288 37.5648 137.294 37.5895 137.294 37.6145C137.294 37.6395 137.288 37.6642 137.277 37.6866C137.266 37.709 137.249 37.7284 137.229 37.7434L136.772 38.1819C136.93 38.3145 137.054 38.4833 137.134 38.6741C137.214 38.8648 137.246 39.0719 137.229 39.2779L137.203 39.3875ZM134.4 42.089C134.24 42.1699 134.107 42.2964 134.019 42.4524C133.931 42.6084 133.891 42.7871 133.904 42.9659C133.904 43.6558 134.264 43.8556 135.367 43.8556C136.469 43.8556 136.817 43.6364 136.817 42.9272C136.833 42.7998 136.812 42.6704 136.754 42.5556C136.697 42.4407 136.606 42.3456 136.495 42.2825C136.131 42.163 135.748 42.1148 135.367 42.1406C135.044 42.1406 134.722 42.1213 134.4 42.089ZM136.72 39.2586C136.72 38.5107 136.269 38.1432 135.367 38.1432C134.464 38.1432 134.007 38.5107 134.007 39.2586V39.3875C134.007 40.1612 134.361 40.5094 135.367 40.5094C136.372 40.5094 136.72 40.1612 136.72 39.3875V39.2586Z" fill="#0F172A"/>
<path d="M139.227 36.1057C139.227 35.9316 139.272 35.8865 139.446 35.8865H139.523C139.697 35.8865 139.742 35.9316 139.742 36.1057V38.401C139.905 38.1715 140.127 37.9903 140.385 37.8768C140.642 37.7633 140.926 37.7217 141.205 37.7562C142.372 37.7562 142.952 38.2914 142.952 39.3681V42.1276C142.952 42.3017 142.907 42.3468 142.726 42.3468H142.681C142.507 42.3468 142.462 42.3017 142.462 42.1276V39.3617C142.462 38.5235 142.088 38.1624 141.121 38.1624C140.155 38.1624 139.742 38.5428 139.742 39.3874V42.076C139.742 42.2501 139.697 42.2952 139.523 42.2952H139.471C139.297 42.2952 139.252 42.2501 139.252 42.076L139.227 36.1057Z" fill="#0F172A"/>
<path d="M144.552 38.0399C144.552 37.9239 144.552 37.8852 144.72 37.8594L145.306 37.7949L145.403 36.7633C145.403 36.6215 145.467 36.5957 145.583 36.5957H145.629C145.77 36.5957 145.796 36.6408 145.796 36.7633V37.7949H147.44C147.62 37.7949 147.652 37.8465 147.652 38.0012V38.0399C147.652 38.1947 147.62 38.2527 147.44 38.2527H145.796V40.793C145.768 41.0995 145.85 41.4059 146.028 41.657C146.122 41.7491 146.234 41.8198 146.358 41.8644C146.481 41.9089 146.613 41.9261 146.744 41.9149C147.035 41.9176 147.326 41.8807 147.607 41.8052C147.749 41.7601 147.82 41.8052 147.82 41.9793V42.018C147.82 42.1599 147.762 42.2243 147.607 42.2759C147.328 42.3508 147.039 42.3876 146.75 42.3855C145.79 42.3855 145.306 41.8504 145.306 40.793V38.2463H144.72C144.697 38.2495 144.674 38.2474 144.652 38.2401C144.63 38.2328 144.61 38.2205 144.594 38.2043C144.578 38.188 144.566 38.1682 144.558 38.1464C144.551 38.1246 144.549 38.1014 144.552 38.0786V38.0399Z" fill="#0F172A"/>
</g>
</svg>
